<?xml version="1.0"?>
<svg xmlns:rdf="http://www.w3.org/1999/02/22-rdf-syntax-ns#" xmlns="http://www.w3.org/2000/svg" xmlns:cc="http://web.resource.org/cc/" xmlns:xlink="http://www.w3.org/1999/xlink" xmlns:dc="http://purl.org/dc/elements/1.1/" xmlns:svg="http://www.w3.org/2000/svg" id="watch_xA0_Image_1_" xml:space="preserve" viewBox="0 0 162.72 225.6" version="1.1" x="0px" y="0px" enable-background="new 0 0 162.72 225.6">
<g clip-rule="evenodd" fill-rule="evenodd">
	<path d="m92.64 5.28c-3.19 0.758-5.691-1.681-8.64-1.92-21.088-1.706-34.099 13.452-34.08 32.64-4.379-20.678 20.471-40.994 42.72-30.72z"/>
	<path d="m81.6 4.8c-0.666 1.095-3.341 0.179-4.8 0.48-0.194-0.882 3.099-0.81 4.8-0.48z"/>
	<path d="m85.44 5.76c-0.081-1.041 1.702-0.217 2.4-0.48 0.08 1.041-1.703 0.218-2.4 0.48z"/>
	<path d="m52.8 24.96c1.241-1.652 1.159 2.469 0 0z"/>
	<path d="m79.2 25.44c0.116 8.472 0.138 8.16-0.48 15.36-0.975-2.329-2.247-13.201 0.48-15.36z" fill="#fff"/>
	<path d="m81.12 25.44c0.976 0.35 1.959 1.444 0.96 2.4-0.713-0.406-0.695-1.546-0.96-2.4z" fill="#fff"/>
	<path d="m81.6 39.36c-1.793-3.884-0.024-8.476-1.44-13.44 2.312 2.648 1.139 8.781 1.44 13.44z" fill="#fff"/>
	<path d="m86.88 25.92c3.016 1.784 4.367 5.232 4.319 10.08-1.668-3.131-2.177-7.422-4.319-10.08z" fill="#fff"/>
	<path d="m67.68 28.32c0.467 2.238-2.561 5.112-2.4 8.64-1.604-3.374 1.13-6.543 2.4-8.64z" fill="#fff"/>
	<path d="m74.88 28.8c0.783-0.083 0.969 3.141-0.48 2.4-0.397-1.357 0.677-1.243 0.48-2.4z"/>
	<path d="m55.2 32.64c0.183-0.914 0.61 0.306 0.48 0.96-0.183 0.914-0.611-0.307-0.48-0.96z" fill="#fff"/>
	<path d="m68.64 54.72c-4.082 2.137-5.607-5.233-9.12-6.72-0.416-2.879-3.606-5.224-2.88-7.68 2.449 4.111 5.376 7.744 8.64 11.04 1.469 0.771 3.324 1.156 3.36 3.36z" fill="#fff"/>
	<path d="m83.52 41.76c-0.059 1.222-0.698 1.862-1.92 1.92 0.717-0.563 0.566-1.994 1.92-1.92z" fill="#fff"/>
	<path d="m84.96 41.76h0.96v0.96h-0.96v-0.96z" fill="#fff"/>
	<path d="m92.16 42.72c0.03-0.034-0.033-0.474 0-0.48 2.305-0.407-2.28 3.085 0 0.48z" fill="#fff"/>
	<path d="m78.72 50.4c0.312-1.354 0.557 1.106 0.48 1.44-0.222 0.964-0.902 0.388-0.48-1.44z"/>
	<path d="m92.64 57.12c1.195 0.195 0.028 1.861-0.96 1.44-0.264-1.064 0.916-0.684 0.96-1.44z" fill="#fff"/>
	<path d="m83.52 60.48c-2.429 0.657-4.351 0.866-5.76 0.48 0.729 0.2 2.98-1.351 5.76-0.48z"/>
	<path d="m74.4 81.6c-2.403-0.411-2.651-1.117-5.28-0.48 0.515-1.725 5.053-1.069 5.28 0.48z"/>
	<path d="m65.28 82.08c0.316-1.438 1.026 0.459 1.92 0-0.072 1.194-1.625 0.14-1.92 0z"/>
	<path d="m75.84 82.08c-3.437 1.434-5.51-0.536 0 0z"/>
	<path d="m71.04 82.56c-2.542 1.47-4.611-0.598 0 0z"/>
	<path d="m67.2 83.04c-1.054 1.466-3.075-0.554 0 0z"/>
	<path d="m105.6 85.92c0.447 0.512 1.771 0.149 1.439 1.44-1.05 0.087-1.53-0.393-1.44-1.44z"/>
	<path d="m116.64 86.88c1.393 0.086 1.157 2.281-0.48 1.92-0.06-0.861 0.59-1.012 0.48-1.92z"/>
	<path d="m77.76 91.68c2.617-1.482 5.931 0.458 9.12 0-1.38 1.592-3.713 0.318-5.76 0-1.791-0.51-0.76 1.8-2.4 1.44 0.021-0.821-0.357-1.243-0.96-1.44z"/>
	<path d="m74.4 91.68c-1.87 0.85-4.298 1.141-6.72 1.44 1.64-1.08 3.9-1.54 6.72-1.44z"/>
	<path d="m84.48 93.12c0.854 0.352 0.069 0.873 0 1.44-0.855-0.352-0.069-0.873 0-1.44z"/>
	<path d="m79.68 95.04h1.44c-1.031 4.409-0.225 10.655-0.48 15.84 3.013-2.61-1.349-13.475 2.399-15.84 0.134 3.399-0.094 10.416 0 15.36 0.21 0.59 0.614 0.986 1.44 0.96-2.068 0.458-7.04-0.312-10.56 0 1.065-0.695 1.27-2.25 1.44-3.84 1.764 0.59-1.163 2.89 0.48 3.36 2.879 0.341 0.796-3.864 0-4.32 1.418-3.28-1.562-8.165-0.48-11.04 1.671 0.278 1.053 2.881 1.44 4.32 0.631 2.348 1.13 8.079 2.4 11.04 0.448-4.58 0.376-8.39 0.481-15.84z"/>
	<path d="m74.4 95.52c-1.054 1.466-3.074-0.554 0 0z"/>
	<path d="m111.36 101.28c2.08 0.2-0.51 2.79 0 0z"/>
	<path d="m104.64 101.76c0.386 0.254 0.779 0.501 1.439 0.48-2.719 4.641-5.632 9.088-8.159 13.92-0.98-0.46-1.899-0.98-2.881-1.44 0.316-1.438 1.026 0.459 1.921 0 2.736-4.14 5.169-8.59 7.679-12.96z"/>
	<path d="m120.96 105.6c-0.062-0.861 0.587-1.013 0.479-1.92 1.39 0.09 1.16 2.28-0.48 1.92z" fill="#fff"/>
	<path d="m144.48 117.12c0.816-0.177 0.905 0.374 0.96 0.96-0.408-0.088-0.453 0.188-0.479 0.479-0.56-0.08-0.4-0.88-0.48-1.44z"/>
	<path d="m142.56 119.04c-0.854-0.352-0.069-0.873 0-1.44 0.86 0.35 0.07 0.87 0 1.44z" fill="#fff"/>
	<path d="m80.16 123.84c1.826-0.705 0.094 2.146 1.92 1.44-0.558 1.28-2.547 0.04-1.92-1.44z"/>
	<path d="m75.36 125.76c0.591 0.21 0.986 0.614 0.96 1.44-0.591-0.21-0.986-0.61-0.96-1.44z"/>
	<path d="m83.52 126.24c-0.21 0.59-0.614 0.985-1.44 0.96 0.21-0.59 0.614-0.99 1.44-0.96z"/>
	<path d="m140.16 126.24c0.855 0.352 0.069 0.872 0 1.439-0.86-0.35-0.07-0.87 0-1.44z" fill="#fff"/>
	<path d="m43.2 128.16c1.217-0.872 3.057 1.725 3.84 2.88-2.022-0.22-2.21-2.27-3.84-2.88z"/>
	<path d="m74.4 129.6c-0.427-0.372-1.084-0.516-1.92-0.479 0.086-1.39 2.281-1.16 1.92 0.48z"/>
	<path d="m78.72 128.64c2.11-1.76 1.824 1.33 0 0z"/>
	<path d="m144.96 128.16c0.854 0.352 0.068 0.873 0 1.439-0.86-0.35-0.07-0.87 0-1.44z" fill="#fff"/>
	<path d="m83.52 129.12c-1.132 1.54-1.94-1.69 0 0z"/>
	<path d="m154.56 130.08c1.37 1.95-1.57 3.12 0 0z" fill="#fff"/>
	<path d="m142.56 130.56c0.854 0.353 0.069 0.873 0 1.44-0.85-0.35-0.07-0.87 0-1.44z" fill="#fff"/>
	<path d="m150.72 134.4c1.023 1.487-0.151 1.835 0 3.84-0.99-0.41-0.51-3.34 0-3.84z"/>
	<path d="m13.44 135.84c0.183-0.913 0.611 0.307 0.48 0.96-0.183 0.91-0.611-0.31-0.48-0.96z"/>
	<path d="m154.56 136.32c0.183-0.914 0.61 0.306 0.479 0.96-0.18 0.91-0.61-0.31-0.48-0.96z" fill="#fff"/>
	<path d="m19.2 139.2c0.312-1.354 0.557 1.105 0.48 1.439-0.222 0.96-0.902 0.39-0.48-1.44z"/>
	<path d="m151.2 138.72c0.82 2.595 0.132 6.328 0 8.641-1.08-2.05-0.39-6.46 0-8.64z"/>
	<path d="m135.36 140.16c1.381 3.522 0.276 12.251-0.479 17.76-0.99-0.29-3.335 0.774-2.88-0.96 0.003-2.213 0.862 0.797 1.92 0.48 0.06-1.451 2.642-5.959-0.96-5.28-1.29-1.497 1.466-10.054 0.479-11.04 1.38 1.379-1.462 8.698 0.48 10.56 2.78-1.54 0.88-7.76 1.44-11.52z"/>
	<path d="m141.12 140.16c0.312-1.354 0.558 1.105 0.48 1.439-0.22 0.96-0.9 0.39-0.48-1.44z" fill="#fff"/>
	<path d="m147.84 139.68c-0.929 0.832 0.411 3.932-1.44 3.841 1.28-0.48-0.64-4.16 1.44-3.84z" fill="#fff"/>
	<path d="m25.44 141.12c0.662-1.528 0.475 1.696 0.48 2.4-0.661 1.53-0.475-1.7-0.48-2.4z"/>
	<path d="m131.04 141.6c0.184-0.913 0.611 0.307 0.48 0.96-0.18 0.91-0.61-0.31-0.48-0.96z"/>
	<path d="m153.6 141.6c0.42 2.853 0.326 6.377 0.479 10.561-0.98-1.3-1.43-7.54-0.48-10.56z" fill="#fff"/>
	<path d="m76.32 144.96c4.394-6.339 11.146 5.986 1.92 5.28-1.338-1.06-2.334-2.47-1.92-5.28zm4.8 0c-1.468 0.349-1.412-0.828-2.88-0.48-1.161 1.265-1.161 3.536 0 4.801 3.539 0.53 4.483-2.21 2.88-4.32z" fill="#fff"/>
	<path d="m12 144c0.825 1.319 1.035 5.368 0.48 8.64-1.111-1.93-0.167-5.91-0.48-8.64z"/>
	<path d="m131.52 144c-1.25 1.765-4.78 0.944-7.68 0.96-2.8 0.015-5.838-0.354-7.681 0.48 3.846 0.799 11.035 0.799 14.88 0 1.285 1.548 0.357 2.456 0.48 4.8-4.354-1.087-10.695-0.185-15.84-0.48v-5.76c3.05-0.28 11.46-1.14 15.84 0zm-6.72 3.36c-2.642-0.052-5.469 0.039-7.681 0-0.585 0.054-1.136 0.144-0.96 0.96h14.88c-0.86-1.79-4.04-0.92-6.24-0.96z"/>
	<path d="m10.56 144.48c0.312-1.353 0.557 1.106 0.48 1.44-0.223 0.96-0.902 0.39-0.48-1.44z"/>
	<path d="m13.44 144.96c1.109 0.49 0.993 2.207 0.96 3.84-1.893 0.29-0.565-2.64-0.96-3.84z"/>
	<path d="m24.96 144.96h0.96v0.96h-0.96v-0.96z"/>
	<path d="m131.04 148.32h-14.88c-0.176-0.816 0.375-0.906 0.96-0.96 2.212 0.039 5.039-0.052 7.681 0 2.2 0.04 5.38-0.83 6.24 0.96z" fill="#fff"/>
	<path d="m150.72 147.84c1.963 0.437 0.449 4.351 1.439 5.76-1.2-1.2-1.46-3.34-1.44-5.76z"/>
	<path d="m43.68 149.28c-0.31 1.294-2.428 0.488-3.84 0.479-3.621-0.022-7.941 0.488-11.52 0.48-0.562 0.077-0.405 0.875-0.48 1.439-1.06-0.06-0.204-2.036-0.48-2.88 4.365 0.541 10.683-0.516 14.4-0.479 0.744 0.01 1.772-0.14 1.92 0.96z"/>
	<path d="m10.56 149.28c0.661-1.528 0.475 1.695 0.48 2.399-0.662 1.53-0.475-1.7-0.48-2.4z"/>
	<path d="m141.12 150.72c0.662-1.527 0.476 1.696 0.48 2.4-0.66 1.53-0.48-1.7-0.48-2.4z" fill="#fff"/>
	<path d="m132.48 153.12c0.312-1.354 0.558 1.105 0.48 1.439-0.22 0.96-0.9 0.39-0.48-1.44z"/>
	<path d="m23.52 154.08c0.553-1.553 0.543 1.289 0.48 1.92-0.553 1.55-0.543-1.29-0.48-1.92z"/>
	<path d="m18.72 155.52c0.183-0.913 0.61 0.307 0.48 0.96-0.183 0.91-0.611-0.31-0.48-0.96z" fill="#fff"/>
	<path d="m145.92 155.04c1.348 1.531 1.647 4.111 2.399 6.24-1.61-1.27-2-3.76-2.4-6.24z"/>
	<path d="m24 156.96c1.303-0.344-0.343 2.264 0.96 1.92-0.814 1.68-1.233-0.94-0.96-1.92z"/>
	<path d="m19.2 157.92c0.78 1.14 0.932 2.908 1.44 4.32-1.617-0.3-1.25-2.59-1.44-4.32z" fill="#fff"/>
	<path d="m131.52 158.4c1.073 3.188-1.184 4.225-1.44 7.68-1.11-2.24 1.22-5.17 1.44-7.68z"/>
	<path d="m133.44 159.36c1.96-0.146 0.257 1.002 0.48 1.92-0.65-0.15-0.4-1.2-0.48-1.92z"/>
	<path d="m109.92 166.56c1.392 0.528 3.246 0.595 3.359 2.4-1.39-0.53-3.25-0.59-3.36-2.4z" fill="#fff"/>
	<path d="m147.36 169.44v-0.961c1.024-0.224 0.914 0.687 0.96 1.44-0.39-0.09-0.48-0.48-0.96-0.48z"/>
	<path d="m142.08 169.92c0.591 0.21 0.986 0.614 0.96 1.44-0.59-0.21-0.99-0.61-0.96-1.44z" fill="#fff"/>
	<path d="m133.92 172.8c0.726-1.694 0.91 0.884 0.479 0.96-0.28 0.05-0.6-0.67-0.48-0.96z" fill="#fff"/>
	<path d="m127.2 173.76c0.069-0.185 1.016-0.849 1.44-0.479 0.95 0.82-2.12 2.29-1.44 0.48z"/>
	<path d="m133.92 174.24c-0.421 1.499-1.306 2.535-1.92 3.84-1.535-1.295 1.333-1.863 0-3.36 0.86 0.06 1.01-0.59 1.92-0.48z" fill="#fff"/>
	<path d="m65.76 176.64c-0.149 0.651-1.202 0.398-1.92 0.48 0.134-1.11 1.282-1.1 1.92-0.48z"/>
	<path d="m93.12 177.12h0.96v0.96h-0.96v-0.96z"/>
	<path d="m128.16 179.52c0.855 0.353 0.069 0.873 0 1.44-0.86-0.35-0.07-0.87 0-1.44z" fill="#fff"/>
	<path d="m34.08 185.76c-0.441-0.732-3.534-1.731-3.36-2.88 0.459-3.04 5.263-0.8 3.36 2.88z" fill="#fff"/>
	<path d="m80.64 183.36h-0.96v-0.96h0.96v0.96z"/>
	<path d="m63.36 182.88c0.926 0.194 0.042 2.198 1.92 1.44-0.315 0.644-1.026 0.894-1.92 0.96v-2.4z"/>
	<path d="m125.76 186.72c-0.764-1.107 1.064-3.717 2.88-3.84-0.92 1.32-2.13 2.35-2.88 3.84z" fill="#fff"/>
	<path d="m13.44 183.84c1.256-0.369 0.608 0.878 0.96 1.44 2.319 3.706 5.76 6.884 7.68 11.04-2.084-1.091-3.833-3.642-5.28-5.761-1.463-2.14-3.267-4.67-3.36-6.72z"/>
	<path d="m90.24 189.12c0.472-1.472 1.281 0.552 1.92 0.479-0.471 1.47-1.281-0.55-1.92-0.48z"/>
	<path d="m129.12 192c0.651 0.148 0.398 1.202 0.48 1.92-0.78-0.47-1.1-1.28-0.48-1.92z" fill="#fff"/>
	<path d="m84.96 192.48c0.702 0.418 1.521 0.719 1.439 1.921-0.701-0.42-1.521-0.72-1.439-1.92z"/>
	<path d="m139.2 192.48c1.195 0.195 0.029 1.861-0.96 1.44-0.26-1.06 0.92-0.68 0.96-1.44z" fill="#fff"/>
	<path d="m78.24 193.44c0.971-1.55 2.678 0.156 1.92 1.92-1.085-0.2 0.253-2.81-1.92-1.92z"/>
	<path d="m39.84 193.44c0.703 0.417 1.521 0.718 1.44 1.92-0.702-0.42-1.521-0.72-1.44-1.92z" fill="#fff"/>
	<path d="m79.68 197.76c-1.92-0.16-4.777 0.617-4.8-1.439 1.79 0.29 4.365-0.2 4.8 1.44z" fill="#fff"/>
	<path d="m48.96 197.28c1.241-1.65 1.16 2.47 0 0z" fill="#fff"/>
	<path d="m52.32 198.24c-0.35 0.976-1.444 1.96-2.4 0.96 0.775-0.55 1.52-1.88 2.4-0.96z" fill="#fff"/>
	<path d="m96 198.72c-1.517-1.414-4.644 1.558-5.28 0.96 0.312-1.32 4.839-2.89 5.28-0.96z"/>
	<path d="m53.76 199.2c-0.21 0.59-0.614 0.985-1.44 0.96 0.209-0.59 0.614-0.99 1.44-0.96z" fill="#fff"/>
	<path d="m67.68 199.68c1.391-0.889 4.833 0.271 6.72 0.48 1.459 0.301 4.135-0.614 4.8 0.479h-4.8c-1.947-0.61-4.864-0.26-6.72-0.96z"/>
	<path d="m100.32 201.6c1.444-0.483 0.851 1.069 0.96 1.92-0.84-0.12-1.09-0.83-0.96-1.92z" fill="#fff"/>
	<path d="m120 204c-2.202-0.447 0.241-3.475 1.439-1.92 0.14 1.26-1.86 0.38-1.44 1.92z" fill="#fff"/>
	<path d="m98.4 202.08c1.495-0.225 1.716 1.207 0.96 1.92-0.645-0.32-0.894-1.03-0.96-1.92z" fill="#fff"/>
	<path d="m96.96 202.56c1.672 0.142-0.041 1.299 0.96 1.44-0.606 1.45-1.961-1.07-0.96-1.44z" fill="#fff"/>
	<path d="m51.84 204.48c1.947-1.37 3.123 1.57 0 0z"/>
	<path d="m65.28 204.48c-0.209 0.591-0.614 0.986-1.44 0.961 0.209-0.59 0.614-0.99 1.44-0.96z"/>
	<path d="m100.32 204.96c-0.441 0.838-1.5 1.06-2.88 0.96 0.592-0.69 1.65-0.91 2.88-0.96z" fill="#fff"/>
	<path d="m42.72 213.12c-0.604-0.119-0.484-0.954 0-0.96-0.013-0.467-0.588-0.373-0.96-0.48 0.434-1.606 1.073-0.419 1.92 0-0.17 0.63-0.845 0.76-0.96 1.44z" fill="#fff"/>
	<path d="m47.04 213.12c-0.119 0.521-0.955 0.325-0.96 0.96-1.289-0.847-0.958-1.402-2.88-0.96 0.666-2.09 2.48-0.05 3.84 0z" fill="#fff"/>
	<path d="m72.48 212.16c-0.463 0.977-1.843 1.036-3.36 0.96 0.726-0.71 2.107-0.77 3.36-0.96z" fill="#fff"/>
	<path d="m105.12 216c-1.221-0.539-2.341-1.179-3.359-1.92 0.69-0.82 3.41 0.4 3.36 1.92z" fill="#fff"/>
	<path d="m106.08 216.48c0.072-1.193 1.626-0.14 1.921 0-0.07 1.19-1.62 0.14-1.92 0z" fill="#fff"/>
	<path d="m94.56 216.96c1.117-1.394 2.586 0.901 4.32 0.48-1.24 1.52-3.007-0.48-4.32-0.48z" fill="#fff"/>
	<path d="m106.56 216.96c-0.072 1.194-1.625 0.141-1.92 0 0.07-1.19 1.62-0.14 1.92 0z" fill="#fff"/>
	<path d="m103.2 216.96c0.775-0.135 0.826 0.454 1.44 0.48 0.19 0.93-2.19 0.7-1.44-0.48z" fill="#fff"/>
	<path d="m89.76 218.4c0.408-1.409 1.208 0.624 2.399 0-0.122 1.12-2.108 0.28-2.399 0z" fill="#fff"/>
	<path d="m103.2 218.4c-1.13 1.54-1.94-1.69 0 0z" fill="#fff"/>
	<path d="m71.52 218.4c0.455 1.734-1.891 0.669-2.88 0.96 0.592-0.69 1.651-0.91 2.88-0.96z" fill="#fff"/>
	<path d="m62.4 218.88c-0.116 0.845-0.826 1.095-1.92 0.96 0.116-0.84 0.826-1.09 1.92-0.96z" fill="#fff"/>
	<path d="m64.8 219.36c-0.132 0.988-1.788 0.451-1.92 1.439-1.418-0.69 0.572-1.93 1.92-1.44z" fill="#fff"/>
	<path d="m67.2 219.84c-0.277 1.163-1.813 1.067-2.88 1.44 0.407-1.03 1.182-1.7 2.88-1.44z" fill="#fff"/>
	<path d="m91.2 220.8c-0.315-1.317 3.282-1.409 3.36 0.48-1.127-0.15-1.802-0.76-3.36-0.48z" fill="#fff"/>
	<path d="m71.04 220.32c-0.359 0.754-4.224 2.059-3.84 0.479 1.15-0.29 2.19-0.69 3.84-0.48z" fill="#fff"/>
	<path d="m70.08 222.24c-0.206-1.326 1.79-0.451 1.92-1.44 7.433-0.25 0.855 0.91-1.92 1.44z" fill="#fff"/>
	<path d="m91.68 221.28c-0.123 1.123-2.109 0.276-2.4 0h-2.88c-0.876-0.373 0.288-0.517 0.96-0.48 1.502 0.1 3.523-0.32 4.32 0.48z" fill="#fff"/>
	<path d="m86.88 221.76c-2.539 1.564-8.369-0.099-12.48 0.96 2.846-1.93 8.441-1.54 12.48-0.96z" fill="#fff"/>
	<path d="m55.68 21.6c1.896-1.482 4.249-6.181 7.2-8.16 1.228-0.021 0.585 0.357 0.48 0.96 0.386-0.254 0.779-0.5 1.44-0.48-0.312-0.488-1.104-0.496-0.96-1.44 1.771 0.947 1.022-0.758 2.4-1.92 2.688-2.267 8.211-3.576 12.48-3.84 5.84-0.361 11.922 2.022 16.319 4.32-1.759-1.921-3.763-3.597-6.239-4.8 0.753-0.573 5.949 0.534 4.319 2.4 0.387-0.254 0.779-0.501 1.44-0.48 1.142-0.142-0.533-1.299-0.96-1.44 1.92 0.002 4.098 1.494 5.76 2.88 4.608 3.84 9.597 10.51 10.561 17.76 2.002 15.069-6.389 25.72-16.32 30.72 1.313 5.794-7.024 10.624 0 13.44 1.553 0.553-1.289 0.543-1.92 0.48 4.748 2.739 8.489 3.428 13.439 3.84-1.469 2.019 2.069-0.458 0.48 1.44 1.356 0.397 1.243-0.676 2.4-0.48-1.065 1.311 1.444 1.41 2.399 0.96-0.091 0.389-0.481 0.479-0.479 0.96 1.682-0.828 2.337 1.235 4.8 0.96 0.576 0.63 0.187 0.755 0 1.44 2.479-0.872 0.687 1.327 3.84 0.48 0.673 1.805 3.885 2.02 5.28 3.36 0.514 0.494-0.127 1.347 0 1.44 0.301 0.222 0.47-0.505 0.96 0 0.647 0.667 1.687 0.566 2.88 1.44 3.081 2.256 5.085 6.378 8.16 7.68-9.209-12.071-22.812-19.748-40.801-23.04 6.944-0.344 12.973 2.523 18.721 5.28 8.904 4.272 17.51 10.153 24 17.28 8.931 9.808 16.367 24.314 19.2 40.8 5.081 29.573-10.331 52.961-25.921 68.16-0.774 0.136-0.826-0.454-1.439-0.48 0.254 0.387 0.501 0.779 0.479 1.44-3.88 3.16-8.891 5.189-12.479 8.64-1.433-0.688-1.632 0.393-2.88-0.479 1.793-0.505 2.959-0.828 4.319-2.4-1.214-0.487-3.123 1.818-5.279 1.92-0.143 1.263 1.862 0.378 1.439 1.92-2.45 0.788-2.872-1.071-4.8-0.479 0.561 2.809 1.625-0.366 2.88 0.96-0.684 1.383-2.604 0.969-3.359 0-1.418 0.417 1.113 0.719 0.479 1.92-1.132-0.148-0.893-1.667-2.399-1.44-1.299 0.432 1.012 1.159 1.439 1.44-17.031 9.17-47.166 7.432-63.36-1.44 2.21-1.936 5.741 1.569 7.2 2.4 2.373-0.83 1.618 0.98 3.84 0-1.536 2.265 2.254-1.066 1.44 1.92 0.954-0.006 0.61-1.31 1.92-0.96-1.698-0.862-3.821-1.299-5.76-1.92 0.283-1.797 2.674-1.485 3.36-2.88-0.487-0.916-2.22 0.942-2.88 1.439-1.559-0.979 1.621-1.214 1.44-2.399-1.538 0.223-1.692 1.827-3.36 1.92 0.013 0.467 0.588 0.372 0.96 0.479-1.213 1.89-4.543-1.22-6.24-1.92-1.7-0.26-1.18 1.7-2.88 1.44-8.505-5.415-17.508-10.332-23.04-18.72 2.021 0.858 3.175 2.585 4.32 4.319 1.31 0.044 0.966-0.799 1.92 0-2.103 0.774 0.881 1.387 2.4 2.4-6.788-7.132-13.849-13.991-17.76-24-0.986 0.134-0.958 1.282-1.44 1.92 0.635 0.625 1.491 0.757 0.96 2.4 0.427-0.213 0.858-0.422 0.96-0.96 0.712 0.209-0.189 0.614 0 1.439-0.408-0.088-0.453 0.188-0.48 0.48-6.403-10.4-10.738-22.86-10.56-39.84 0.551-0.575 1.217-0.187 0.48 0-0.447 8.073 2.01 15.457 2.88 21.601 2.297 0.714 0.54 4.371 2.4 5.76-0.537 2.99 2.636 4.987 2.88 8.64 0.648-0.471 0.959-1.28 1.44-1.92-1.598 0.52 0.43-2.311-1.92-2.88-0.596-2.711-1.237-6.209-2.88-7.68-0.026-2.47-0.923-7.532-2.4-10.08-0.927-7.101-0.232-20.141 0.48-26.88 2.463-4.65 2.162-9.587 4.32-13.44 0.041-0.072 0.877 0.666 0.96 0.48 0.096-0.217-0.682-0.877-0.48-1.44 0.219-0.612 1.216-0.575 1.44-0.96 0.188-0.323 0.329-2.145 0.48-2.4 0.567-0.958 2.041-4.735 2.88-5.76 0.086-0.104 0.828 0.702 0.96 0.48 0.158-0.264-0.177-1.544 0-1.92 0.579-1.224 3.013-4.119 3.84-3.36-0.668-1.853 2.655-5.761 4.32-5.28-0.373-3.796 5.439-5.394 8.16-7.68-0.091-0.544-0.481-0.266-0.48 0 0.174-2.098 6.56-5.057 7.68-6.24 1.509-1.003 1.923 0.115 2.4-1.92 0.682-0.042 1.359-0.08 1.44 0.48 1.104-1.976 4.953-3.072 5.76-3.36 1.701-0.607 1.542-0.696 2.88-0.48 0.712-0.21-0.189-0.614 0-1.44 5.291-0.092 4.95-1.692 12-2.4-1.791-1.605 0.09-0.303 1.92-0.48-0.536-0.59-0.417-0.986 0.48-0.96-1.058-1.265-3.632-0.356-5.28 0-3.808 0.824-8.12 3.026-11.52 3.84 4.54-2.82 10.52-4.2 16.8-5.28 1.171-1.068 2.308-2.172 2.4-4.32-0.151-2.729-3.216-2.544-2.4-6.24 1.854 0.256 4.46 4.031 5.76 0.48 1.01 0.431 2.134 0.746 2.88 1.44 4.453-1.789 10.86-0.774 15.84-0.96 1.231-0.049 0.771-1.789 1.44-2.4-1.127-1.169-1.074 0.536-1.92 0.96-3.312-0.049-7.224 0.504-8.64-1.44 0.903-0.958 1.743-0.758 0.959-2.4-0.467 0.013-0.372 0.587-0.479 0.96 0.3-4.224-0.296-5.6-0.48-10.08-0.333-1.748-2.502-1.658-3.84-2.4-0.89 0.853-2.173 3.633-2.4 5.28-0.518 3.761 1.098 8.522-0.96 10.08-1.586-0.488 0.56-10.139-0.96-10.56-0.552-1.918-0.288-3.235-1.92-4.8-4.345 3.904-0.723 9.772-2.88 14.4-0.081 1.041 1.703 0.217 2.4 0.48-4.95 1.967-12.05-3.885-15.84-8.64-3.419-4.29-5.362-10.402-6.24-14.88 1.699 0.852 1.24 3.531 1.92 5.28 0.671 1.727 1.482 3.522 2.88 4.32 0.328 1.432 0.582 2.938 1.92 3.36-0.354-4.642-3.831-6.631-2.4-10.56-0.078-0.562-0.875-0.405-1.44-0.48 2.059-1.922 0.618-5.139 0.96-7.68 0.477-3.548 2.733-6.417 2.4-9.12zm81.6 173.76c-1.805 1.163-3.528 3.157-5.279 4.8-1.546 1.449-4.215 2.812-3.841 4.8 1.131-1.895 3.219-4.353 5.28-3.84 0.24-2.96 3.08-3.32 3.84-5.76zm-18.24 14.4v0.96c0.482-0.001 0.571 0.389 0.961 0.48-0.797-3.113 2.97-0.609 1.439-2.4 2.105-0.02 3.082-1.806 5.28-2.88-1.694-0.142 1.693-1.299 0-1.44-1.99 2.33-4.8 3.84-7.68 5.28zm-4.8 4.8c-0.64-2.38-2.27-0.75 0 0zm-6.24 1.92c-0.295-0.14-1.849-1.193-1.921 0 0.3 0.14 1.85 1.19 1.92 0zm-3.36 0.48c0.295 0.141 1.848 1.194 1.92 0-0.3-0.14-1.85-1.19-1.92 0zm-48.48-0.48c0.973-0.184 3.345-1.403 2.4-1.92-0.381 1.06-2.256 0.62-2.4 1.92zm-12.96-3.36c1.922-0.442 1.591 0.113 2.88 0.96 0.005-0.635 0.841-0.438 0.96-0.96-1.36-0.05-3.174-2.09-3.84 0zm0.48-1.44c-0.847-0.419-1.486-1.606-1.92 0 0.372 0.107 0.947 0.014 0.96 0.48-0.484 0.006-0.604 0.841 0 0.96 0.115-0.68 0.79-0.81 0.96-1.44zm-3.36-1.92c0.666 0.295 0.072 1.848 0.96 1.92 0.813-2.488-3.072-3.112-4.8-4.319-2.052-1.435-3.563-3.771-5.76-4.32 2.065 3.1 6.027 6.71 9.6 6.72zm93.6-111.84c-12.938-15.652-37.964-27.651-64.8-23.04-31.572 5.425-54.636 26.695-61.92 55.68-1.668 6.64-2.093 14.565-1.44 22.561 1.228 15.02 6.663 25.312 14.4 36.479-0.001-0.267 0.389-0.545 0.48 0-0.576 1.511 2.946 4.649 3.84 4.801v1.439c1.727 0.347 2.914 3.255 4.8 4.8 1.135 0.93 3.88 3.359 3.36 0.96-0.053 1.176-1.587 0.103-1.44-0.479 1.21-0.325 0.85-1.596 0.48-1.92-0.027 0.293-0.072 0.568-0.48 0.479-0.964 1.673 0.212-0.04 0.48 0.96-0.482-0.001-0.571 0.389-0.96 0.48-0.617-1.467 0.608-1.505 0.48-3.36-0.71-0.25-1.21-0.71-1.92-0.96-0.903 0.847 0.656 1.486-0.96 1.92 1.16-1.535-0.75-0.905-0.96-1.439 1.453-1.016-1.775-3.563-2.4-4.32 0.309 0.374-0.955-3.952-0.96-0.96 0.115-0.736 0.791-0.07 0.96 0.479-0.846-0.903-1.486 0.656-1.92-0.96 0.274-0.434 1.979-1.767 0.96-1.92-0.75 0.771-2.13-2.432-2.88-1.92 1.093-0.774 0.155-1.075 0.48-2.88-0.484 0.956-0.83 2.051-1.92 2.4 0.936-1.219 2.123-3.281 0-1.44 0.508-0.727 2.815-3.842 1.44-3.359 0.081 1.201-0.737 1.502-1.44 1.92 1.28-2.346 0.574-1.206-0.48-1.44 0.711-0.652 3.04-3.982 1.92-3.36-0.481 0.64-0.792 1.449-1.44 1.921 0.731-2.783 1.272-2.242-0.96-0.961-0.101-0.955 2.035-2.05 0.96-2.399-0.153 0.556-1.486 2.261-1.92 0.96 2.029 0.121 2.697-4.979 1.44-1.44-1.004 0.002-1.804 2.615-2.4 1.44 2.232-1.396 0.905-3.544 2.4-5.28-1.861 0.379-1.826 2.654-3.36 3.36 0.355-1.426 2.737-3.315 1.92-4.32-0.591 0.414-1.328 3.091-1.92 1.92 0.961-0.291 2.385-5.154 1.44-2.88-1.099 0.66-1.127 2.393-2.4 2.88 0.641-2.248 3.357-4.95 2.88-6.72-0.75 1.188-1.87 4.506-2.88 3.84 0.773-1.323 2.847-3.851 1.92-5.28 0.35 0.785-0.954 2.089-0.96 0.96 0.11-0.745 1.845-2.239 0.48-2.88-0.202 0.918-0.174 2.066-1.44 1.92 0.326-1.141 2.172-3.23 0.96-4.319-0.372 1.548-1.003 2.836-1.92 3.84 0.857-2.343 1.822-4.578 2.4-7.2-1.86-0.26-0.415 2.785-1.92 2.88-0.303-1.771 1.736-3.667 0.48-4.8-0.233 0.567-0.512 1.088-0.96 1.44-0.295-1.779 1.895-3.826 0-4.32-0.066 0.894-0.316 1.604-0.96 1.92 1.063-1.497-0.577-5.697 1.44-6.24 0.298 8.914 0.603-2.216 1.44-3.84 0.581 4.718-0.54 7.389 0 10.56 0.082-0.718-0.171-1.771 0.48-1.92 0.582 3.039 0.744 7.406 2.88 10.08-1.159-3.943-1.164-8.066-1.92-12-0.051-0.265-0.924-0.954-0.96-1.439-0.222-2.995 0.689-7.572 0.96-10.561 1.472-16.216 10.697-30.625 20.16-38.88v-1.44c0.481-0.001 0.571 0.389 0.96 0.48 12.454-11.97 36.248-20.153 59.04-13.44 0.197-0.603 0.619-0.981 1.44-0.96-0.026 0.614-0.615 0.665-0.48 1.44 1.882-0.273 2.994 1.665 4.32 0.48-0.104 2.404 4.641 0.501 3.359 2.4 0.837 0.036 1.493-0.107 1.921-0.48-0.195 2.185 6.059 3.115 5.76 4.32 0.105-0.374 0.401-0.558 0.96-0.48-1.015 0.534 2.91 3.695 2.399 0.96 0.614 0.026 0.665 0.615 1.44 0.48-0.928 1.434 1.517 5.177 3.36 3.84-1.145 1.199 0.573 0.958 1.439 1.92-0.269-0.298 0.43 2.601 0.96 0.96-0.267 0.001-0.545-0.389 0-0.48 0.561 1.186 1.255 1.771 1.92 0.48 0.24 1.51-1.046 1.876 0 2.88 1.51 0.55 1.167-0.754 1.92-0.96 0.108 0.907-0.541 1.059-0.479 1.92 1.201-0.06 1.502-0.916 1.92 0.48-0.539 0.049-0.747-0.698-0.96 0 1.682 0.215 0.982 2.065 1.439 2.4 0.102-0.539 0.533-0.747 0.96-0.96 0.623 1.19-1.07 2.33 0 2.4 0.27-1.391 0.749 0.736 1.44 0.48-0.025-0.826 0.369-1.23 0.96-1.44-0.094 2.244 1.035 2.801 1.44 4.32 0.609-0.025 1.926-1.608 2.88 0-0.635 0.006-0.439 0.842-0.96 0.96-0.075-0.564 0.082-1.362-0.48-1.44-0.854 0.902-2.22 4.151 0 2.88-0.56-0.081-0.521-0.759-0.479-1.44 1.407 1.133 1.782-0.922 2.399 0-0.458 0.7-2.179 2.57-1.439 2.88 0.48-1.459 0.791-0.612 1.439 0-0.146-1.119-1.024-2.067 0.48-2.399 0.065 0.894 0.315 1.604 0.96 1.92 0.315-0.996 2.752-2.325 1.439-3.36-0.281 0.428-1.008 2.738-1.439 1.44 0.988-0.132 0.451-1.788 1.439-1.92 0.539 0.102 0.748 0.533 0.96 0.96 0.518 1.227-2.066 1.68-0.479 2.399-0.002-0.267 0.389-0.545 0.479 0-0.899 0.846-1.02 2.006-1.92 0.48 0.55 1.017-1.513 5.175-0.96 4.32 0.846-0.435 0.793-1.768 1.92-1.921-0.021 0.661 0.227 1.055 0.48 1.44 0.299 1.304-2.171 2.248-0.96 2.88 0.741-1.019 1.381-2.139 1.92-3.36-1.456 0.177-0.996-1.563-1.44-2.399 0.954-0.006 0.61-1.31 1.92-0.96-0.001 0.481 0.39 0.571 0.48 0.96-1.576 2.049-0.455 1.325 0.48 1.439-0.595 1.505-3.382 5.342-0.48 4.801 0.35-2.104-0.954 0.387-0.96-0.96 0.617-1.143 1.23-2.29 1.92-3.36 0.608 1.464-1.642 2.444-0.479 2.88 0.141-0.427 1.298-2.102 1.439-0.96-0.412 2.001-3.356 3.986-2.4 5.76 1.053-2.147 1.629-4.771 3.841-5.76-0.428 2.145-3.606 4.059-2.4 6.24 0.349-2.371 1.733-3.706 2.88-5.28 0.386 1.698-2.09 2.986-0.96 3.84 0.281-0.428 1.009-2.737 1.44-1.439-1.059 2.469-3.619 5.972-2.88 8.64 0.962-2.878 1.688-5.991 3.84-7.68-0.63 3.217-3.973 6.259-2.88 9.6 0.634-3.343 1.768-6.042 3.359-7.68-1.275 4.167-4.192 9.243-3.359 13.92 0.739-4.541 1.701-8.858 3.84-12-0.182 3.186-2.995 6.274-1.92 9.12 0.611-3.714 3.474-7.72 2.88-11.04-0.107 0.372-0.014 0.946-0.48 0.96 0.032-1.899 0.217-5.956-0.96-3.84-0.521-1.229 1.458-2.289 0-2.88-0.054 0.585-0.144 1.136-0.96 0.96 0.761-2.123 1.326-1.955-0.479-2.4 2.21-0.457-0.743-1.978-0.96-2.88-0.057-0.235 0.402-3.471-0.96-1.44 0.928-1.693-0.226-2.146-0.48-3.84-0.826-0.189-1.23 0.712-1.439 0-0.77-5.63-5.61-11.35-10.08-14.88zm-106.08 96.96c-0.292 0.027-0.568 0.072-0.48 0.48 0.539 0.102 0.748 0.532 0.96 0.96-0.266-0.002-0.545 0.389 0 0.479 1.062-1.391-0.604 0.736 0.48 0.48-0.256-0.691 1.871-1.172 0.48-1.44-1.064 1.53-1.213-2.49-1.44-0.96zm114.72-77.28c-0.069 0.567-0.854 1.089 0 1.44 0.07-0.57 0.86-1.09 0-1.44zm3.36 33.12c-1.422 5.652 1.166 9.61 1.439 12.96-1.038-1.361-1.196-3.604-2.399-4.8 0.517 4.123 3.048 6.232 4.319 9.6-1.697-0.382-1.357-2.802-2.88-3.359 0.248 2.272 0.606 1.913-0.96 0.96 0.621 3.028 3.995 5.036 0.48 7.2 0.021-0.661-0.227-1.055-0.48-1.44 0.481-0.001 0.571 0.389 0.96 0.48 0.242-1.498-1.131-2.324 0.48-1.44-0.006-1.755-0.949-2.571-1.92-3.36-0.411 1.12 1.678 2.068 0.479 2.4-1.029-0.73-1.471-2.049-2.4-2.88 0.105 1.814 1.51 2.331 1.921 3.84-1.576-0.664-1.886-2.595-2.881-3.84-0.732 1.595 1.872 3.408 2.4 5.28-2.191-0.842-0.962 0.155-0.479 1.439-1.127-0.153-1.075-1.485-1.921-1.92-0.948 2.201-3.375 4.335-1.439 6.72-1.233-0.046-0.687-1.873-1.92-1.92-0.299 1.305 2.171 2.248 0.96 2.88-3.492-3.566 2.426-6.556 2.399-11.04-2.359 1.48-2.115 5.564-4.319 7.2 1.36-4.079 3.348-7.531 4.8-11.52 0.912 0.848 1.138 2.382 1.92 3.359 0.922-2.702-2.874-3.178-1.44-4.8 1.073 0.239 1.139 3.938 2.4 2.4-0.553-0.156-1.652-2.094-0.479-2.4-0.135 1.095 0.115 1.805 0.96 1.92-0.324-1.275-0.756-2.444-1.44-3.359-0.075 0.564 0.083 1.362-0.479 1.439-2.706-1.064 1.941-6.302-0.48-5.76 0.578-1.501 1.779-2.381 1.44-4.8-2.236-0.423 0.323 1.582-0.96 1.439-2.293-1.562 0.661-1.377 0.96-2.399 1.108-3.805-1.183-8.736-0.96-12-0.006 0.484-0.842 0.604-0.961 0-0.595-2.445-0.009-6.07-1.92-7.2 2.031 8.329 2.928 20.19 0.96 28.8-5.417 23.709-27.844 45.069-51.84 48-4.302 0.525-9.196 0.848-13.92 0.48-23.02-1.791-39.627-13.658-50.88-30.721 0.072 0.64-1.952 1.449-0.48 1.92-0.168 0.179 4.007 3.895 2.88 5.28 0.924 0.7 2.865 1.052 3.36 2.88 0.148 0.548 0.789 0.546 1.92 1.44 1.051 0.832 2.753 2.925 4.32 4.32 1.075 0.956 2.677 1.633 3.36 2.399 0.412 0.462-0.725 0.45 0 0.96 0.42 0.295 1.923-0.031 2.4 0.48 1.069 1.146 2.566 2.827 4.32 3.84 2.862 1.653 2.788 1.341 4.32 1.439-1.008 1.887 2.382 2.95 3.84 1.44 0.476 0.928 2.927 0.92 1.44 2.4 2.995-1.967 1.013 1.258 3.84 0 0.001 0.481-0.389 0.571-0.48 0.96 4.559-0.004 11.934 3.483 20.16 3.359 2.146-0.032 5.105 0.215 7.68 0 0.898-0.074 1.721-1.229 2.88-1.439 2.443-0.442 9.528-0.089 8.641-1.92 0.948 1.104 2.697 0.878 3.84 0-0.539-0.102-0.747-0.533-0.96-0.96 2.338 1.341 1.136-0.44 1.439-0.96 0.64-0.072 1.449 1.951 1.92 0.479-0.538-0.102-0.747-0.532-0.96-0.96 0.711 0.25 1.21 0.71 1.92 0.96 0.1-2.089 3.5-1.405 3.841-1.92-0.539-0.102-0.748-0.532-0.96-0.96 4.083-0.807 9.645-4.354 12.96-8.64-0.373-0.107-0.947-0.014-0.96-0.48 1.248-0.872 1.447 0.208 2.88-0.479 4.737-5.343 9.289-10.871 12.96-17.28 0.558 1.135 0.148 4.839 0.479 3.84 0.066-0.894 0.316-1.604 0.96-1.92-0.021 0.661 0.227 1.054 0.48 1.439-1.666-1.038 0.148 1.989-2.4 1.921 0.623-0.639 0.633-1.786-0.479-1.921-0.312 1.752 0.323 2.557 0.96 3.36-1.429-1.438-1.993-1.174-2.88-0.479 0.675 0.125 0.547 1.053 0.96 1.439-0.295-0.141-1.848-1.193-1.92 0 1.699 0.054-1.021 1.587 0.479 1.44 0.142-0.448 1.299-0.448 1.44 0-2.082 0.851-0.396 1.256-2.4 1.439 0.294 1.79 0.835 2.963-0.96 1.44-0.669 0.611-0.209 2.352-1.44 2.399-0.049-0.538 0.698-0.747 0-0.96-0.026 0.293-0.071 0.568-0.479 0.48 0.002-0.267-0.389-0.545-0.48 0 0.48 0.799-0.179 1.3 0.96 1.439-1.325-0.205-0.45 1.79-1.439 1.921-0.979-0.269-0.941-1.444-1.92-0.48 0.021 0.661-0.227 1.054-0.48 1.44 1.048-0.088 1.527 0.393 1.44 1.439-1.828-2.239-3.823 2.184-5.76 2.88 0.538 0.102 0.747 0.533 0.96 0.96-2.219-0.529-1.77 2.082-2.4 2.88-1.688 2.137-4.181 2.751-5.76 3.36 0.53 0.325 2.49 1.596 1.439 1.92-0.658-1.102-1.977-1.543-2.88-2.399-0.593 1.553 1.554 0.366 0.96 1.92-1.606-0.89-0.419 0.123 0 0.96-1.31 0.35-0.966-0.954-1.92-0.96-0.189 0.825 0.713 1.23 0 1.439-0.854-0.277-0.961 0.217-2.399 0 0.53 0.325 2.489 1.596 1.439 1.92-0.66-0.497-2.393-2.356-2.88-1.439 0.854 0.232-0.208 0.512-0.479 0.96 0.846 0.434 1.485 1.073 1.92 1.92 10.925-4.558 20.456-12.396 27.359-20.641 2.729-3.259 4.321-7.157 6.24-10.56 2.352-4.17 3.444-7.816 5.28-12 0.077-0.176 0.895-0.247 0.96-0.479 0.167-0.595-0.567-1.184-0.48-1.44 0.038-0.111 0.903 0.11 0.96 0 2.015-3.854 1.409-11.111 1.44-13.44 0.065 0.895 0.315 1.604 0.96 1.92-1.432-6.354-0.948-14.023-0.96-19.68-0.115 0.521-0.791 1.152-0.96 0.48-0.315-1.756 1.038-1.842 0.96-3.36-0.691-1.062-1.171 0.604-1.44-0.479-0.271-1.276 1.975-2.444 0.48-3.36-4.869 8.719-3.736 23.338-0.48 31.2-1.154-3.014-3.207-6.654-3.84-10.561-0.335-2.072 1.086-4.699-0.96-6.24-0.235 7.593 2.89 14.209 4.32 19.681-1.82-3.82-4.14-10.01-4.8-13.44zm-90.24 51.84c0.025-0.897-0.37-1.016-0.96-0.479-0.263-0.697 0.561-2.481-0.48-2.4-0.665 0.295-0.072 1.848-0.96 1.92-0.756-0.401-2.676-2.072-3.36-0.96 7.881 3.727 17.292 8.189 28.32 7.2v-2.399c-2.531 0.162-6.863-2.076-7.68 0-3.395-2.903-9.912-2.545-12-3.36-0.001-0.481 0.389-0.571 0.48-0.96-1.18 1.33-3.77-1.98-3.36-0.48 0.778-0.34 0.778 2.26 0 1.92zm-13.44-6.24c1.304-0.299 2.248 2.171 2.88 0.96-0.809-0.2-2.157-2.26-2.88-0.96zm-0.96-0.96c0.082-1.202-0.737-1.503-1.44-1.92-0.081 1.2 0.738 1.5 1.44 1.92zm-18.24-15.36c0.196-2.064 1.643-0.638 2.4-1.44-1.979-4.415-4.324-8.569-6.24-13.439-1.054 3.99 4.809 11.03 3.84 14.88zm106.56 13.92c-0.082-0.718 0.171-1.771-0.48-1.92-0.62 0.64-0.3 1.45 0.48 1.92zm-8.16 8.16c-1.198-1.555-3.642 1.473-1.439 1.92-0.42-1.54 1.58-0.66 1.44-1.92zm-3.84 2.88c2.59-0.91 0.51-2.02 0 0zm-10.56 9.6c-1.393 0.235-2.761-1.987-3.359-0.96 1.132 0.148 0.893 1.667 2.399 1.44 1.667-0.573 3.729-0.752 4.801-1.92-1.286-0.314-1.825-1.375-2.88-1.92-0.511 1.79 1.8 0.76 1.439 2.399-1.019-0.74-2.139-1.381-3.36-1.92-0.476 1.634 3.392 1.358 1.921 2.4-0.909-0.403-2.764-2.314-3.36-1.44 0.88 0.56 1.62 1.26 2.4 1.92zm-5.28-0.48c1.019 0.741 2.139 1.381 3.359 1.92 0.05-1.52-2.67-2.74-3.36-1.92zm-1.92 0.48c0.809 0.791 2.157 1.043 2.88 1.92-1.793 0.325-3.035-2.368-4.32-0.96 0.567 0.233 1.088 0.513 1.44 0.96-0.842 0.133-2.396-1.351-2.88 0 2.332 1.129 5.185 0.979 7.199-0.479-1.52-0.11-2.94-2.79-4.32-1.44zm-64.32-127.2c2.977-1.714-0.699-1.274 0 0zm29.76-36c-3.264-3.296-6.19-6.929-8.64-11.04-0.727 2.456 2.464 4.801 2.88 7.68 3.513 1.487 5.039 8.857 9.12 6.72-0.036-2.204-1.891-2.589-3.36-3.36zm37.92-10.56c-0.001 0.267 0.389 0.545 0.48 0-0.896-1.034 1.694-4.002-0.48-5.28-0.826 3.499-2.742 8.451-4.8 9.12 10.136-15.44-2.947-33.841-17.28-34.56-13.148-0.659-26.023 10.352-24.96 24.48 0.558 7.416 4.95 12.539 10.56 16.8v-6.72c-5.836-4.833-3.119-16.744 3.84-18.24-2.646 2.263-5.398 9.609-2.4 12.48-0.829-3.538 0.065-8.242 1.92-10.56-1.17 2.537-2.497 8.294-0.48 11.04 0.502-1.737-1.089-5.569 0.96-5.76-0.017 2.097-0.177 4.337 0.96 5.28 0.622-1.035-1.264-2.798 0.96-3.84 0.018 1.743-0.269 3.789 0.96 4.32 0.377-2.503-0.306-6.065 1.44-7.2-0.749 1.611-0.376 5.655 0.96 6.72-0.1-5.523 2.475-8.85 0.96-13.44-0.213 1.227-0.673 2.207-1.44 2.88 0.158-1.122 0.577-1.983 0.96-2.88-2.992-0.112-3.638 2.122-4.8 3.84 0.55-2.617 2.38-3.168-0.48-3.36 7.546-2.685 19.416-2.184 24 4.32 3.471 4.924 1.636 11.299-2.399 15.84-0.614-0.026-0.665-0.615-1.44-0.48 0.293 1.147-0.603 3.482 0.48 3.84 0.051-1.229 0.271-2.288 0.96-2.88 0.489 2.25-0.79 2.73-1.44 3.84 3.531 0.164 4.812-4.458 6.721-4.32-1.57 3.87-6.901 3.979-7.2 9.12 6.516-1.951 9.828-8.025 12.478-14.4zm-37.92-3.84c-0.16-3.528 2.868-6.402 2.4-8.64-1.27 2.097-4.004 5.266-2.4 8.64zm36-16.32c0.027-0.293 0.072-0.568 0.48-0.48-0.002 0.267 0.389 0.545 0.479 0-1.022-1.857-2.24-3.52-3.84-4.8-0.169 2.93 3.62 3.229 2.88 5.28zm-22.56 20.16c0.618-7.2 0.596-6.888 0.48-15.36-2.727 2.159-1.455 13.031-0.48 15.36zm1.44-14.88c1.416 4.964-0.354 9.556 1.44 13.44-0.301-4.659 0.872-10.792-1.44-13.44zm1.92 1.92c1-0.956 0.016-2.05-0.96-2.4 0.265 0.854 0.247 1.994 0.96 2.4zm3.36 4.32c0.411 1.749-0.363 4.466 1.44 5.28-0.149-4.815-1.266-11.209-4.32-11.52 1.563 1.185 2.273 3.654 2.88 6.24zm2.88 4.32c1.389 2.056 0.452 0.458 0.48-0.48 0.067-2.286-0.591-5.978-0.96-8.16-1.569 0.102-1.94-3.463-3.36-1.92 1.797 3.003 3.812 5.788 3.84 10.56zm2.88-0.48c0.048-4.848-1.304-8.296-4.319-10.08 2.141 2.658 2.65 6.949 4.319 10.08zm11.52-8.16c0.153-1.127 1.485-1.074 1.92-1.92-1.29-1.754-2.79 1.635-1.92 1.92zm-12.96-0.96c1.053 2.947 2.61 5.39 3.359 8.64 1.071-3.424-1.756-6.365-3.359-8.64zm14.88 1.44c-0.197 0.818-0.619-0.101-1.44 0v6.24c1.31 0.043 0.967-0.8 1.92 0-0.311-2.249 0.628-5.748-0.479-7.2v0.96zm-20.64 10.08c0.467-1.939-0.28-7.482-1.44-10.56-0.533 2.717 1.202 7.041 1.44 10.56zm11.52-2.4c-0.574-2.315-1.328-6.979-2.88-6.72 1.539 1.66 1.087 5.313 2.88 6.72zm-39.84-2.4c0.13-0.654-0.297-1.874-0.48-0.96-0.131 0.653 0.297 1.874 0.48 0.96zm16.32 10.08c-0.509-1.412-1.619-2.221-2.4-3.36 0.409 1.511 0.891 2.95 2.4 3.36zm-1.92 0c0.083-1.203-1.075-1.166-1.44-1.92 0.202 0.918 0.174 2.066 1.44 1.92zm3.36 0c0.227-0.936-1.292-2.455-1.44-1.44 1.15-0.19-0.266 2.186 1.44 1.44zm0.96 0h1.44c0.181-1.461-1.745-0.815-1.92-1.92-0.108 0.907 0.541 1.059 0.48 1.92zm3.84-0.48c-1.407 0.552-1.783-2.303-2.4-0.96 1.102 0.245 1.543 3.24 2.4 0.96zm3.36 0.48c1.222-0.059 1.861-0.699 1.92-1.92-1.354-0.074-1.203 1.357-1.92 1.92zm3.36-0.96h0.96v-0.96h-0.96v0.96zm1.92 0.96c1.112 0.418 1.103-2.442 0.479-0.96 0.039 0.675-1.395 0.547-0.479 0.96zm5.28-1.44c-0.033 0.006 0.03 0.446 0 0.48-2.28 2.605 2.305-0.887 0-0.48zm-31.2 12c-1.999-0.882-2.388-3.372-4.32-4.32 0.794 1.778 2.642 5.022 4.32 4.32zm30.72 4.32c0.988 0.421 2.155-1.245 0.96-1.44-0.044 0.756-1.224 0.376-0.96 1.44zm-3.84 12.48c-6.172-0.438-7.396-2.847-12-5.28 0.033 1.633 0.149 3.35-0.96 3.84 0.413-2.493-0.708-3.453-1.92-4.32-0.081 0.56-0.759 0.521-1.44 0.48 0.367 2.874-3.323 5.362-1.44 6.72-0.565 0.075-1.363-0.083-1.44 0.48 2.222 0.717 4.243-0.808 7.68 0 0.075-0.565-0.083-1.362 0.48-1.44 5.208 0.058 9.447 0.105 12.48 0 0.546-0.019 2.165 1.599 1.92-0.48-2.729 1.178-0.344-6.478-0.96-6.24-2.211 1.582 0.133 4.86-2.4 6.24zm33.12 31.68c-0.484 0.005-0.604 0.841 0 0.96 1.485-2.229 2.573 3.604 3.84 2.4 0.132 0.841-1.352 2.395 0 2.88 0.766-0.354-0.109-2.35 1.439-1.92 0.259 1.698-0.776 2.104-1.439 2.88 1.529 0.41 1.821-0.418 2.399-0.96 0.823 1.27 2.908 2.775 0.96 2.88 3.568 0.544 4.988 6.656 7.681 9.601-10.13-22.051-34.546-40.019-66.72-34.561-2.956 0.501-8.52 2.046-10.08 3.36 0.774-0.081 2.474-1.611 2.88-0.48-2.387 1.097-4.305 2.555-6.24 2.88 0.153-1.127 1.485-1.075 1.92-1.92-9.304 3.433-18.428 8.548-24 15.84-0.88 1.151-1.74 4.458-2.4 5.28-0.373 0.463-1.116-0.188-1.44 0.48 0.084-0.172 0.997 0.212 0.96 0.48-0.034 0.244-2.595 5.563-3.84 4.32v1.92c-6.599 5.314-10.625 22.733-8.16 32.64 0.313-2.727-0.631-6.711 0.48-8.64 0.905 4.255-0.52 6.35 0.48 9.6 0.107-0.372 0.013-0.946 0.48-0.96-0.191 9.787 3.232 12.886 4.8 19.681 1.017-2.297 2.362 5.514 4.32 3.84-5.026-8.504-9.438-19.534-8.16-32.641 2.591-26.556 24.787-50.726 53.28-52.8 13.956-1.016 25.378 2.685 33.601 6.72 1.056 0.519 2.255 3.135 3.84 1.44-1.688-0.377-5.695-3.066-4.32-3.36-0.059-2.248-0.698 0.522-1.92 0 0.448-1.994-5.787-4.038-9.12-5.28 10.74 1.898 18.33 6.951 24.48 13.44zm-85.44 80.64c4.944 4.834 8.471 9.399 13.44 12.479 13.679 8.48 33.826 10.495 49.92 4.8 18.688-6.612 33.414-23.325 37.439-43.68 5.964-30.155-14.799-54.262-34.08-62.4-39.079-16.494-77.62 14.52-80.16 48-1.258 16.574 4.714 30.512 12 39.841 0.311 0.4 1.071 0.6 1.44 0.96zm-4.8-0.48c-0.174 1.148 2.918 2.147 3.36 2.88 1.903-3.68-2.901-5.92-3.36-2.88zm4.32 6.72c-0.012-1.122-2.642-3.747-3.84-5.279 0.538 2.5 2.694 3.39 3.84 5.28zm86.4-85.92c0.107 0.907-0.541 1.059-0.479 1.92 1.64 0.36 1.87-1.83 0.48-1.92zm26.88 9.6c-0.757-0.043-0.376-1.224-1.439-0.96-0.42 0.99 1.58 1.82 1.44 0.96zm-19.2-0.48c-0.685 0.188-0.81 0.576-1.439 0-0.228 0.936 1.292 2.455 1.439 1.44-0.374-0.106-0.558-0.402-0.479-0.96 0.51 0.02 1.22-0.23 0.48-0.48zm11.04 14.88c0.069-0.567 0.855-1.088 0-1.439-0.07 0.57-0.86 1.09 0 1.44zm4.8 1.92c0.068-0.566 0.854-1.088 0-1.439-0.07 0.57-0.86 1.09 0 1.44zm9.6 0.48c-1.57 3.12 1.37 1.95 0 0zm-12 1.92c0.069-0.567 0.854-1.088 0-1.44-0.07 0.57-0.85 1.09 0 1.44zm12.48 5.28c0.131-0.654-0.297-1.874-0.479-0.96-0.13 0.65 0.3 1.87 0.48 0.96zm-13.44 4.32c0.077-0.334-0.168-2.793-0.48-1.439-0.42 1.83 0.26 2.4 0.48 1.44zm4.8 1.92c1.852 0.091 0.512-3.009 1.44-3.841-2.08-0.32-0.16 3.36-1.44 3.84zm7.68 8.64c-0.153-4.184-0.06-7.708-0.479-10.561-0.95 3.02-0.5 9.26 0.48 10.56zm-12.48 0.96c-0.005-0.704 0.182-3.928-0.48-2.4 0 0.7-0.18 3.93 0.48 2.4zm-122.4 3.36c0.13-0.653-0.297-1.873-0.48-0.96-0.131 0.65 0.297 1.87 0.48 0.96zm1.44 5.76c-0.508-1.412-0.66-3.181-1.44-4.32 0.19 1.73-0.177 4.02 1.44 4.32zm98.88 31.2c-0.722 1.139-2.021 0.479-2.4 0.96 0.484 0.005 0.604 0.841 0 0.96-4.971 3.669-10.521 6.758-16.319 9.6 8.324-2.453 14.686-7.022 20.16-12 8.883-8.079 17.307-19.418 18.72-32.16-3.54 14.06-10.59 24.61-20.16 32.64zm12-14.88c-0.631-0.489-1.77-0.47-2.4-0.96-0.227 2.063 1.292 0.614 1.44 1.44-0.562 1.265-0.597 1.672-1.44 0.479 0.23 1.511-0.684 1.877-0.96 2.881 1.94-0.46 2.57-2.23 3.36-3.84zm-2.88 4.32c-1.815 0.123-3.644 2.732-2.88 3.84 0.75-1.49 1.96-2.52 2.88-3.84zm-102.72-6.72c-2.26-4.14-3.515-9.285-5.76-13.44 1.12 4.96 3.448 11.27 5.76 13.44zm108.48-2.4c0.431-0.076 0.246-2.654-0.479-0.96-0.12 0.29 0.2 1.01 0.48 0.96zm-2.4 0.96c1.333 1.497-1.535 2.065 0 3.36 0.614-1.305 1.499-2.341 1.92-3.84-0.91-0.11-1.06 0.54-1.92 0.48zm-103.2 7.68c3.473 5.125-0.944-4.168-0.96-2.881 0.364 0.97 0.57 2.3 0.96 2.88zm99.36-1.44c0.069-0.567 0.855-1.088 0-1.44-0.07 0.57-0.86 1.09 0 1.44zm-103.2 1.44c0.629 2.929 1.324-0.009-0.48-0.48-0.537 1-0.518 1.02 0.48 0.48zm117.6 5.28c0.661-0.021 1.054 0.227 1.44 0.48-0.797-1.955 2.286-2.463 0.479-3.84 0.67 2.43-2.2 1.32-1.92 3.36zm-0.96 0.96c0.611 0.982 0.691 2.223 0.96 1.44 0.818-0.197-0.101-0.619 0-1.44 0.267 0.002 0.545-0.389 0-0.479-0.11 0.37-0.4 0.56-0.96 0.48zm-22.56 2.88c0.58 0.102 0.296 0.533 0 0.96 1.766-0.314 2.391-1.77 3.36-2.88-1.62 0.47-2.35 2.13-3.36 1.92zm-3.84 2.88c1.893 0.269 2.524-3.204 2.4-3.36-0.57 1.35-2.04 1.8-2.4 3.36zm23.04-0.48c0.989 0.421 2.155-1.245 0.96-1.44-0.04 0.76-1.22 0.38-0.96 1.44zm-27.36 3.36c-0.443 0.283-1.42-0.186-1.92 0-0.966 0.358-2.107 2.049-2.881 2.399-0.762 0.346-0.463-0.489-0.96 0.96-0.102-0.538-0.532-0.747-0.96-0.96-0.203 1.076-1.029 1.53-1.439 2.4 0.144-0.78-0.648-1.295-0.96-0.48 1.106-0.146 0.533 1.387 1.439 1.44 0.678-1.723 3.191-1.608 3.84-3.36 1.228 1.171 2.624-0.197 3.36-0.96-0.854-0.287-1.993 1.407-2.399 0 1.677-0.422 3.273-1.769 3.84-1.92 1.746-0.466 0.368-0.941 1.92-1.439-0.031 0.01 2.148 2.312 1.439 0-0.374-0.106-0.558-0.402-0.479-0.96-2.04-0.55-2.24 1.86-3.84 2.88zm-62.4-1.44c-1.912-1.036-3.347-0.528-4.32 0 0.607 0.55 3.785 0.96 4.32 0zm-2.88 2.4c1.313 0.446 2.047 1.473 3.36 1.92 0.462-1.742-2.157-0.403-1.92-1.92 1.12-0.142 1.12-1.299 0-1.44 0.615 2.45-1.398 0.51-1.44 1.44zm3.36-0.96c1.16 2.47 1.241-1.65 0 0zm0.96 1.92c0.956 1 2.05 0.016 2.4-0.96-0.88-0.92-1.625 0.41-2.4 0.96zm2.4 0.96c0.826 0.025 1.23-0.37 1.44-0.96-0.826-0.03-1.231 0.37-1.44 0.96zm48.96 3.36c-0.109-0.851 0.484-2.403-0.96-1.92-0.13 1.09 0.12 1.8 0.96 1.92zm-1.92 0.48c0.756-0.713 0.535-2.145-0.96-1.92 0.066 0.89 0.315 1.6 0.96 1.92zm-1.44 0c-1.001-0.142 0.712-1.299-0.96-1.44-1.001 0.37 0.354 2.89 0.96 1.44zm-63.84 0.48c0.481-0.001 0.571 0.39 0.96 0.48-0.001-0.481 0.389-0.571 0.48-0.96-0.481 0.002-0.571-0.389-0.96-0.48 0.002 0.48-0.389 0.57-0.48 0.96zm1.92 0.96c0.153-0.25 1.486-0.745 1.92 0-0.267-0.002-0.545 0.389 0 0.479 1.135-1.09-0.599-1.436-1.44-1.92 0.256 0.69-1.871 1.17-0.48 1.44zm61.44 0.48c1.38 0.1 2.438-0.122 2.88-0.96-1.23 0.05-2.288 0.27-2.88 0.96zm-20.64 2.88c7.813 0.134 15.052-0.309 20.161-2.88-6.157 2.22-14.427 1.26-20.161 2.88zm-35.04 0c0.027-0.293 0.071-0.568 0.479-0.479-0.35 1.577 0.954 0.734 0.96 0-0.935-0.53-2.454-0.22-1.439 0.48zm8.16 4.8c0.373 0.107 0.947 0.014 0.96 0.48-0.292 0.027-0.568 0.071-0.48 0.479 1.304-0.296 2.248-0.951 2.88-1.92-1.405 0.92-2.359 0.47-3.36 0.96zm2.4 0.96c1.529 0.53 3.282-2.613 2.4-1.439-1.12 0.16-2.068 0.49-2.4 1.44zm16.8-1.44c1.517 0.076 2.897 0.017 3.36-0.96-1.253 0.19-2.634 0.25-3.36 0.96zm-11.04 3.84c0.425-0.143 2.439-0.961 0.96-1.44 0.418 0.99-2.442 0.96-0.96 1.44zm0.96 0.48c1.613 0.013 2.539-0.661 3.36-1.44-1.23 0.37-2.721 0.48-3.36 1.44zm2.4 0c-0.549 1.071 3.774-0.489 4.32-1.44-1.764 0.16-2.656 1.18-4.32 1.44zm37.44 0c-1.734 0.421-3.203-1.874-4.32-0.48 1.313 0 3.08 2 4.32 0.48zm-33.12-0.48c-0.048 0.016 0.038 0.436 0 0.48-2.632 1.87 3.399-1.61 0-0.48zm29.76 0.96c-1.273 0.273-4.23-1.665-3.36-0.479 0.756 0.25 2.571 1.85 3.36 0.48zm9.12-0.48c-0.614-0.026-0.665-0.615-1.44-0.48-0.75 1.18 1.63 1.41 1.44 0.48zm-38.4 0.96c-0.505 0.026-0.377 0.615 0.48 0.479 4.531-1.48 3.016-1.69-0.48-0.48zm25.92 0c-1.191 0.624-1.991-1.409-2.399 0 0.29 0.28 2.276 1.12 2.399 0zm11.04 0c-1.94-1.69-1.13 1.54 0 0zm-34.56 0.96c0.989-0.291 3.334 0.774 2.88-0.96-1.229 0.05-2.288 0.27-2.88 0.96zm26.4 0c1.204 1.979 3.644 0.158 4.801-0.48 0.613 0.026 0.664 0.615 1.439 0.48-0.87-2.37-4.05 0.56-6.24 0zm-34.56 0.48c1.094 0.135 1.804-0.115 1.92-0.96-1.094-0.13-1.804 0.12-1.92 0.96zm2.4 0.96c0.132-0.988 1.788-0.451 1.92-1.439-1.348-0.49-3.338 0.75-1.92 1.44zm1.44 0.48c1.067-0.373 2.603-0.277 2.88-1.44-1.698-0.26-2.473 0.41-2.88 1.44zm23.04-0.48c-0.672-0.036-1.836 0.107-0.96 0.48h2.88c0.291 0.276 2.277 1.123 2.4 0-0.797-0.8-2.818-0.38-4.32-0.48zm7.2 0.48c-0.078-1.89-3.676-1.798-3.36-0.48 1.558-0.28 2.233 0.33 3.36 0.48zm-27.36-0.48c-0.384 1.579 3.481 0.274 3.84-0.479-1.65-0.21-2.69 0.19-3.84 0.48zm4.8 0c-0.13 0.989-2.125 0.114-1.92 1.44 2.775-0.53 9.353-1.69 1.92-1.44zm2.4 1.92c4.111-1.059 9.941 0.604 12.48-0.96-4.039-0.58-9.634-0.97-12.48 0.96zm68.64-51.36c0.026-0.826-0.369-1.23-0.96-1.44-0.03 0.83 0.37 1.23 0.96 1.44z"/>
	<path d="m133.44 201.12c-2.062-0.513-4.149 1.945-5.28 3.84-0.374-1.988 2.295-3.351 3.841-4.8 1.751-1.643 3.475-3.637 5.279-4.8-0.76 2.44-3.6 2.8-3.84 5.76z" fill="#fff"/>
	<path d="m126.72 204.48c1.693 0.142-1.694 1.299 0 1.44-2.198 1.074-3.175 2.86-5.28 2.88 1.53 1.791-2.236-0.713-1.439 2.4-0.39-0.092-0.479-0.481-0.961-0.48v-0.96c2.88-1.44 5.69-2.95 7.68-5.28z" fill="#fff"/>
	<path d="m114.24 214.56c-2.27-0.75-0.64-2.38 0 0z" fill="#fff"/>
	<path d="m58.56 214.56c0.945 0.517-1.427 1.736-2.4 1.92 0.144-1.3 2.019-0.86 2.4-1.92z" fill="#fff"/>
	<path d="m30.72 203.04c2.197 0.549 3.708 2.886 5.76 4.32 1.728 1.207 5.613 1.831 4.8 4.319-0.888-0.072-0.294-1.625-0.96-1.92-3.573-0.01-7.535-3.62-9.6-6.72z" fill="#fff"/>
	<path d="m144 112.8c0.209 0.712 0.613-0.189 1.439 0 0.255 1.694 1.408 2.146 0.48 3.84 1.362-2.03 0.903 1.205 0.96 1.44 0.217 0.902 3.17 2.423 0.96 2.88 1.806 0.445 1.24 0.277 0.479 2.4 0.816 0.176 0.906-0.375 0.96-0.96 1.458 0.591-0.521 1.65 0 2.88 1.177-2.116 0.992 1.94 0.96 3.84 0.467-0.014 0.373-0.588 0.48-0.96 0.594 3.32-2.269 7.326-2.88 11.04-1.075-2.846 1.738-5.935 1.92-9.12-2.139 3.142-3.101 7.459-3.84 12-0.833-4.677 2.084-9.753 3.359-13.92-1.592 1.638-2.726 4.337-3.359 7.68-1.093-3.341 2.25-6.383 2.88-9.6-2.151 1.688-2.878 4.802-3.84 7.68-0.739-2.668 1.821-6.171 2.88-8.64-0.432-1.298-1.159 1.012-1.44 1.439-1.13-0.854 1.346-2.142 0.96-3.84-1.146 1.574-2.531 2.909-2.88 5.28-1.206-2.182 1.973-4.096 2.4-6.24-2.212 0.988-2.788 3.612-3.841 5.76-0.956-1.773 1.988-3.759 2.4-5.76-0.142-1.142-1.299 0.533-1.439 0.96-1.162-0.436 1.088-1.416 0.479-2.88-0.689 1.07-1.303 2.218-1.92 3.36 0.006 1.347 1.31-1.144 0.96 0.96-2.901 0.541-0.114-3.296 0.48-4.801-0.936-0.114-2.057 0.609-0.48-1.439-0.091-0.389-0.481-0.479-0.48-0.96-1.31-0.35-0.966 0.954-1.92 0.96 0.444 0.836-0.016 2.576 1.44 2.399-0.539 1.222-1.179 2.342-1.92 3.36-1.211-0.632 1.259-1.576 0.96-2.88-0.254-0.386-0.501-0.779-0.48-1.44-1.127 0.153-1.074 1.486-1.92 1.921-0.553 0.854 1.51-3.304 0.96-4.32 0.9 1.525 1.021 0.365 1.92-0.48-0.091-0.545-0.481-0.267-0.479 0-1.587-0.72 0.997-1.173 0.479-2.399-0.212-0.428-0.421-0.859-0.96-0.96-0.988 0.132-0.451 1.789-1.439 1.92 0.432 1.298 1.158-1.013 1.439-1.44 1.312 1.035-1.124 2.364-1.439 3.36-0.645-0.315-0.895-1.026-0.96-1.92-1.505 0.332-0.626 1.28-0.48 2.399-0.648-0.612-0.959-1.459-1.439 0-0.739-0.31 0.981-2.18 1.439-2.88-0.617-0.922-0.992 1.133-2.399 0-0.042 0.682-0.08 1.359 0.479 1.44-2.22 1.271-0.854-1.979 0-2.88 0.562 0.078 0.405 0.875 0.48 1.44 0.521-0.118 0.325-0.954 0.96-0.96-0.954-1.608-2.271-0.025-2.88 0-0.405-1.519-1.534-2.076-1.44-4.32-0.591 0.209-0.985 0.614-0.96 1.44-0.691 0.256-1.171-1.871-1.44-0.48-1.07-0.07 0.623-1.209 0-2.4-0.427 0.213-0.858 0.421-0.96 0.96-0.457-0.335 0.242-2.185-1.439-2.4 0.213-0.698 0.421 0.049 0.96 0-0.418-1.396-0.719-0.54-1.92-0.48-0.062-0.861 0.588-1.013 0.479-1.92-0.753 0.206-0.41 1.51-1.92 0.96-1.046-1.004 0.24-1.37 0-2.88-0.665 1.29-1.359 0.706-1.92-0.48-0.545 0.091-0.267 0.482 0 0.48-0.53 1.641-1.229-1.258-0.96-0.96-0.866-0.962-2.584-0.721-1.439-1.92-1.844 1.337-4.288-2.406-3.36-3.84-0.775 0.135-0.826-0.454-1.44-0.48 0.511 2.735-3.414-0.426-2.399-0.96-0.559-0.078-0.854 0.106-0.96 0.48 0.299-1.205-5.955-2.135-5.76-4.32-0.428 0.373-1.084 0.516-1.921 0.48 1.281-1.899-3.464 0.003-3.359-2.4-1.326 1.185-2.438-0.753-4.32-0.48-0.135-0.775 0.454-0.826 0.48-1.44-0.821-0.021-1.243 0.357-1.44 0.96-22.792-6.713-46.586 1.47-59.04 13.44-0.389-0.091-0.479-0.481-0.96-0.48v1.44c-9.463 8.255-18.688 22.664-20.16 38.88-0.271 2.988-1.182 7.565-0.96 10.561 0.036 0.485 0.909 1.175 0.96 1.439 0.756 3.934 0.762 8.057 1.92 12-2.137-2.674-2.298-7.041-2.88-10.08-0.651 0.149-0.398 1.202-0.48 1.92-0.54-3.171 0.581-5.842 0-10.56-0.837 1.624-1.142 12.754-1.44 3.84-2.017 0.543-0.377 4.743-1.44 6.24 0.644-0.315 0.894-1.026 0.96-1.92 1.895 0.494-0.295 2.541 0 4.32 0.448-0.353 0.727-0.873 0.96-1.44 1.256 1.133-0.783 3.029-0.48 4.8 1.505-0.095 0.06-3.14 1.92-2.88-0.578 2.622-1.542 4.857-2.4 7.2 0.917-1.004 1.548-2.292 1.92-3.84 1.212 1.089-0.634 3.179-0.96 4.319 1.266 0.146 1.238-1.002 1.44-1.92 1.365 0.641-0.37 2.135-0.48 2.88 0.006 1.129 1.31-0.175 0.96-0.96 0.927 1.43-1.147 3.957-1.92 5.28 1.01 0.666 2.13-2.651 2.88-3.84 0.477 1.77-2.239 4.472-2.88 6.72 1.273-0.487 1.301-2.22 2.4-2.88 0.945-2.274-0.479 2.589-1.44 2.88 0.592 1.171 1.329-1.506 1.92-1.92 0.817 1.005-1.565 2.895-1.92 4.32 1.534-0.706 1.499-2.981 3.36-3.36-1.495 1.736-0.168 3.885-2.4 5.28 0.596 1.175 1.396-1.438 2.4-1.44 1.257-3.538 0.589 1.562-1.44 1.44 0.435 1.301 1.767-0.404 1.92-0.96 1.075 0.35-1.061 1.444-0.96 2.399 2.232-1.281 1.691-1.822 0.96 0.961 0.648-0.472 0.959-1.281 1.44-1.921 1.12-0.622-1.208 2.708-1.92 3.36 1.054 0.234 1.76-0.905 0.48 1.44 0.703-0.418 1.521-0.719 1.44-1.92 1.375-0.482-0.932 2.633-1.44 3.359 2.123-1.841 0.936 0.222 0 1.44 1.09-0.35 1.436-1.444 1.92-2.4-0.325 1.805 0.613 2.105-0.48 2.88 0.75-0.512 2.13 2.69 2.88 1.92 1.02 0.153-0.686 1.486-0.96 1.92 0.434 1.616 1.074 0.057 1.92 0.96-0.169-0.55-0.845-1.216-0.96-0.479 0.005-2.992 1.269 1.334 0.96 0.96 0.625 0.757 3.853 3.305 2.4 4.32 0.21 0.534 2.12-0.096 0.96 1.439 1.616-0.434 0.057-1.073 0.96-1.92 0.71 0.25 1.21 0.71 1.92 0.96 0.128 1.855-1.097 1.894-0.48 3.36 0.389-0.092 0.478-0.481 0.96-0.48-0.268-1-1.444 0.713-0.48-0.96 0.408 0.089 0.453-0.187 0.48-0.479 0.37 0.324 0.73 1.595-0.48 1.92-0.147 0.582 1.387 1.655 1.44 0.479 0.52 2.399-2.226-0.03-3.36-0.96-1.886-1.545-3.073-4.453-4.8-4.8v-1.439c-0.894-0.151-4.416-3.29-3.84-4.801-0.091-0.545-0.481-0.267-0.48 0-7.738-11.167-13.173-21.46-14.4-36.479-0.653-7.995-0.228-15.921 1.44-22.561 7.284-28.985 30.348-50.255 61.92-55.68 26.836-4.611 51.863 7.388 64.8 23.04 4.47 3.53 9.31 9.25 10.08 14.88zm-74.88-31.68c2.629-0.637 2.876 0.069 5.28 0.48-0.227-1.549-4.765-2.205-5.28-0.48zm-1.92 0.96c-0.894 0.459-1.604-1.438-1.92 0 0.295 0.14 1.848 1.194 1.92 0zm8.64 0c-5.51-0.536-3.437 1.434 0 0zm-4.8 0.48c-4.611-0.598-2.542 1.47 0 0zm-3.84 0.48c-3.075-0.554-1.054 1.466 0 0zm35.04 4.32c2.95-0.568 1.2-2.311 0 0zm4.8 0c0.331-1.291-0.992-0.928-1.439-1.44-0.09 1.047 0.39 1.527 1.44 1.44zm-48.96 0.48c-1.023-2.491-2.661-0.853 0 0zm58.08 0.96c1.638 0.361 1.873-1.833 0.48-1.92 0.11 0.908-0.54 1.059-0.48 1.92zm22.08 24c0.115-0.685 0.791-0.81 0.96-1.44-1.31 0.043-0.966-0.799-1.92 0-0.107-0.373-0.013-0.947-0.479-0.96 0.05 1.23 0.88 1.68 1.44 2.4zm6.72 5.76c0.026-0.292 0.071-0.567 0.479-0.479-0.055-0.586-0.144-1.137-0.96-0.96 0.08 0.56-0.08 1.36 0.48 1.44zm-131.04 18.24c0.131-0.653-0.297-1.873-0.48-0.96-0.131 0.65 0.297 1.87 0.48 0.96zm0.48 7.68c-0.384-2.336-0.84-4.599-1.92-6.239 0.769 1.95-0.064 5.5 1.92 6.24zm-1.92 8.16c0.555-3.271 0.345-7.32-0.48-8.64 0.313 2.73-0.631 6.71 0.48 8.64zm-1.44-6.72c0.077-0.334-0.167-2.793-0.48-1.44-0.422 1.83 0.257 2.4 0.48 1.44zm3.36 2.88c0.033-1.633 0.149-3.35-0.96-3.84 0.395 1.2-0.933 4.13 0.96 3.84zm-3.36 2.88c-0.005-0.704 0.181-3.928-0.48-2.399 0.005 0.7-0.182 3.93 0.48 2.4zm3.36 16.8c-0.352 2.06 0.633-3.71 0 0z" fill="#fff"/>
	<path d="m29.28 195.84c1.391 0.269-0.736 0.749-0.48 1.44-1.084 0.256 0.582-1.871-0.48-0.48-0.545-0.091-0.266-0.481 0-0.479-0.212-0.428-0.421-0.858-0.96-0.96-0.088-0.408 0.188-0.453 0.48-0.48 0.227-1.53 0.376 2.49 1.44 0.96z" fill="#fff"/>
	<path d="m150.72 164.16c-1.431-5.472-4.556-12.088-4.32-19.681 2.046 1.541 0.625 4.168 0.96 6.24 0.633 3.906 2.686 7.547 3.84 10.561-3.256-7.862-4.389-22.481 0.48-31.2 1.494 0.916-0.751 2.084-0.48 3.36 0.27 1.084 0.749-0.582 1.44 0.479 0.078 1.519-1.275 1.604-0.96 3.36 0.169 0.672 0.845 0.041 0.96-0.48 0.012 5.656-0.472 13.326 0.96 19.68-0.645-0.315-0.895-1.025-0.96-1.92-0.031 2.329 0.574 9.586-1.44 13.44-0.057 0.11-0.922-0.111-0.96 0-0.087 0.257 0.647 0.846 0.48 1.44-0.065 0.232-0.883 0.304-0.96 0.479-1.836 4.184-2.929 7.83-5.28 12-1.919 3.402-3.511 7.301-6.24 10.56-6.903 8.245-16.435 16.083-27.359 20.641-0.435-0.847-1.074-1.486-1.92-1.92 0.271-0.448 1.334-0.728 0.479-0.96 0.487-0.917 2.22 0.942 2.88 1.439 1.05-0.324-0.909-1.595-1.439-1.92 1.438 0.217 1.546-0.277 2.399 0 0.713-0.209-0.189-0.614 0-1.439 0.954 0.006 0.61 1.31 1.92 0.96-0.419-0.837-1.606-1.85 0-0.96 0.594-1.554-1.553-0.367-0.96-1.92 0.903 0.856 2.222 1.298 2.88 2.399 1.051-0.324-0.909-1.595-1.439-1.92 1.579-0.609 4.071-1.224 5.76-3.36 0.631-0.798 0.182-3.409 2.4-2.88-0.213-0.427-0.422-0.858-0.96-0.96 1.937-0.696 3.932-5.119 5.76-2.88 0.087-1.047-0.393-1.527-1.44-1.439 0.254-0.387 0.501-0.779 0.48-1.44 0.979-0.964 0.941 0.212 1.92 0.48 0.989-0.131 0.114-2.126 1.439-1.921-1.139-0.14-0.479-0.641-0.96-1.439 0.092-0.545 0.482-0.267 0.48 0 0.408 0.088 0.453-0.188 0.479-0.48 0.698 0.213-0.049 0.422 0 0.96 1.231-0.048 0.771-1.788 1.44-2.399 1.795 1.522 1.254 0.35 0.96-1.44 2.004-0.184 0.318-0.589 2.4-1.439-0.142-0.448-1.299-0.448-1.44 0-1.5 0.146 1.22-1.387-0.479-1.44 0.072-1.193 1.625-0.141 1.92 0-0.413-0.387-0.285-1.314-0.96-1.439 0.887-0.694 1.451-0.959 2.88 0.479-0.637-0.804-1.271-1.608-0.96-3.36 1.112 0.135 1.103 1.282 0.479 1.921 2.549 0.068 0.734-2.959 2.4-1.921-0.254-0.386-0.501-0.778-0.48-1.439-0.644 0.315-0.894 1.026-0.96 1.92-0.331 0.999 0.078-2.705-0.479-3.84-3.671 6.409-8.223 11.938-12.96 17.28-1.433 0.688-1.632-0.393-2.88 0.479 0.013 0.467 0.587 0.373 0.96 0.48-3.315 4.285-8.877 7.833-12.96 8.64 0.212 0.428 0.421 0.858 0.96 0.96-0.341 0.515-3.741-0.169-3.841 1.92-0.71-0.25-1.209-0.71-1.92-0.96 0.213 0.428 0.422 0.858 0.96 0.96-0.471 1.472-1.28-0.552-1.92-0.479-0.304 0.52 0.898 2.301-1.439 0.96 0.213 0.427 0.421 0.858 0.96 0.96-1.143 0.878-2.892 1.104-3.84 0 0.888 1.831-6.197 1.478-8.641 1.92-1.159 0.21-1.981 1.365-2.88 1.439-2.574 0.215-5.533-0.032-7.68 0-8.226 0.124-15.601-3.363-20.16-3.359 0.091-0.389 0.481-0.479 0.48-0.96-2.827 1.258-0.845-1.967-3.84 0 1.487-1.48-0.964-1.473-1.44-2.4-1.458 1.51-4.848 0.446-3.84-1.44-1.532-0.099-1.458 0.214-4.32-1.439-1.753-1.013-3.25-2.693-4.32-3.84-0.477-0.512-1.98-0.186-2.4-0.48-0.725-0.51 0.412-0.498 0-0.96-0.683-0.767-2.285-1.443-3.36-2.399-1.567-1.396-3.269-3.488-4.32-4.32-1.131-0.895-1.772-0.893-1.92-1.44-0.495-1.828-2.437-2.18-3.36-2.88 1.127-1.386-3.048-5.102-2.88-5.28-1.472-0.471 0.552-1.28 0.48-1.92 11.253 17.062 27.86 28.93 50.88 30.721 4.724 0.367 9.618 0.045 13.92-0.48 23.996-2.931 46.423-24.291 51.84-48 1.968-8.609 1.071-20.471-0.96-28.8 1.911 1.13 1.325 4.755 1.92 7.2 0.119 0.604 0.955 0.484 0.961 0-0.223 3.264 2.068 8.195 0.96 12-0.299 1.022-3.253 0.838-0.96 2.399 1.283 0.143-1.276-1.862 0.96-1.439 0.339 2.419-0.862 3.299-1.44 4.8 2.422-0.542-2.226 4.695 0.48 5.76 0.562-0.077 0.404-0.875 0.479-1.439 0.685 0.915 1.116 2.084 1.44 3.359-0.845-0.115-1.095-0.825-0.96-1.92-1.173 0.307-0.073 2.244 0.479 2.4-1.262 1.538-1.327-2.161-2.4-2.4-1.434 1.622 2.362 2.098 1.44 4.8-0.782-0.978-1.008-2.512-1.92-3.359-1.452 3.988-3.439 7.44-4.8 11.52 2.204-1.636 1.96-5.72 4.319-7.2 0.026 4.484-5.892 7.474-2.399 11.04 1.211-0.632-1.259-1.575-0.96-2.88 1.233 0.047 0.687 1.874 1.92 1.92-1.936-2.385 0.491-4.519 1.439-6.72 0.846 0.435 0.794 1.767 1.921 1.92-0.482-1.284-1.712-2.281 0.479-1.439-0.528-1.872-3.133-3.686-2.4-5.28 0.995 1.245 1.305 3.176 2.881 3.84-0.411-1.509-1.815-2.025-1.921-3.84 0.93 0.831 1.371 2.149 2.4 2.88 1.198-0.332-0.891-1.28-0.479-2.4 0.971 0.789 1.914 1.605 1.92 3.36-1.611-0.884-0.238-0.058-0.48 1.44-0.389-0.092-0.479-0.481-0.96-0.48 0.254 0.386 0.501 0.779 0.48 1.44 3.515-2.164 0.141-4.172-0.48-7.2 1.566 0.953 1.208 1.312 0.96-0.96 1.522 0.558 1.183 2.978 2.88 3.359-1.271-3.367-3.803-5.477-4.319-9.6 1.203 1.196 1.361 3.438 2.399 4.8-0.273-3.35-2.861-7.308-1.439-12.96 0.66 3.43 2.98 9.62 4.8 13.44zm-2.4-2.88c-0.752-2.129-1.052-4.709-2.399-6.24 0.4 2.48 0.79 4.97 2.4 6.24zm-5.28 17.76c-1.265-0.335-1.015-2.186-2.399-2.4 0.36 0.95 1.83 3.25 2.4 2.4zm0.48-4.8c-0.907-0.054-0.333-1.587-1.44-1.44-0.23 0.94 1.29 2.46 1.44 1.44zm4.8-4.32c-0.046-0.754 0.064-1.664-0.96-1.44v0.961c0.48 0 0.57 0.39 0.96 0.48zm1.44-3.84c-0.666-0.19-1.36-2.726-1.92-1.44 0.82 0.03 0.96 3.12 1.92 1.44zm0.96-27.84c-0.151-2.005 1.023-2.353 0-3.84-0.51 0.5-0.99 3.43 0 3.84zm0.96 19.2c-2.022-4.182-1.989-14.674-1.92-18.24-0.96 6.77-1.12 13.6 1.92 18.24zm-0.48-10.08c0.132-2.312 0.82-6.046 0-8.641-0.39 2.18-1.08 6.59 0 8.64zm0.96 6.24c-0.99-1.409 0.523-5.323-1.439-5.76-0.02 2.42 0.24 4.56 1.44 5.76zm-7.2 19.68c1.69 3.45-0.71-1.46 0 0zm-3.84 1.92c0.093 1.404 3.105 4.275 2.4 3.359-0.026-0.613-0.615-0.664-0.48-1.439 0.691-0.257 1.172 1.87 1.44 0.479-1.469-0.611-1.411-2.748-2.88-3.359-0.26 1.699 1.699 1.18 1.439 2.88-1.23-0.05-0.69-1.87-1.92-1.92zm3.84 0c2.45 3.44-0.72-1.01 0 0zm-0.96 0.48c1.58 3.68-0.66-1.54 0 0zm-2.4 6.72c0.027 0.292 0.071 0.567 0.479 0.479 0.282-1.555 1.009-0.897 1.44-1.439-1.872-1.205 1.591-0.338 0-0.961-0.149 0.299-2.954-1.886-1.92-0.96 2.2 1.42-0.7 3.05 0 2.88zm-16.8 18.24c0.435-0.846 1.767-0.793 1.92-1.92-0.81 0.19-2.84 1.58-1.92 1.92zm-72.96 3.84c3.123 1.57 1.947-1.37 0 0z" fill="#fff"/>
	<path d="m55.68 200.64c-0.41-1.5 2.18 1.811 3.36 0.48-0.091 0.389-0.481 0.479-0.48 0.96 2.088 0.815 8.605 0.457 12 3.36 0.817-2.076 5.148 0.162 7.68 0v2.399c-11.028 0.989-20.438-3.474-28.32-7.2 0.684-1.112 2.604 0.559 3.36 0.96 0.888-0.072 0.295-1.625 0.96-1.92 1.041-0.081 0.218 1.703 0.48 2.4 0.59-0.536 0.985-0.418 0.96 0.479 0.778 0.34 0.778-2.26 0-1.92zm8.16 4.8c0.826 0.025 1.23-0.37 1.44-0.961-0.826-0.03-1.231 0.37-1.44 0.96z" fill="#fff"/>
	<path d="m45.12 197.28c-0.632 1.211-1.576-1.259-2.88-0.96 0.723-1.3 2.071 0.76 2.88 0.96z" fill="#fff"/>
	<path d="m19.2 165.12c1.916 4.87 4.261 9.024 6.24 13.439-0.757 0.803-2.204-0.624-2.4 1.44 0.969-3.85-4.894-10.89-3.84-14.88z" fill="#fff"/>
	<path d="m117.6 204.96c0.51-2.02 2.59-0.91 0 0z" fill="#fff"/>
	<path d="m104.64 212.64c0.597-0.874 2.451 1.037 3.36 1.44 1.471-1.042-2.396-0.767-1.921-2.4 1.222 0.539 2.342 1.18 3.36 1.92 0.36-1.64-1.95-0.609-1.439-2.399 1.055 0.545 1.594 1.605 2.88 1.92-1.072 1.168-3.134 1.347-4.801 1.92-1.507 0.227-1.268-1.292-2.399-1.44 0.599-1.027 1.967 1.195 3.359 0.96-0.78-0.66-1.52-1.36-2.4-1.92z" fill="#fff"/>
	<path d="m104.16 216c-2.015 1.459-4.867 1.608-7.199 0.479 0.484-1.351 2.038 0.133 2.88 0-0.353-0.447-0.873-0.727-1.44-0.96 1.285-1.408 2.527 1.285 4.32 0.96-0.723-0.877-2.071-1.129-2.88-1.92 1.38-1.35 2.8 1.33 4.32 1.44z" fill="#fff"/>
	<path d="m35.52 87.36c-0.699-1.274 2.977-1.714 0 0z" fill="#fff"/>
	<path d="m90.72 55.2c0.299-5.142 5.63-5.25 7.2-9.12-1.908-0.138-3.189 4.483-6.721 4.32 0.65-1.11 1.93-1.59 1.44-3.84-0.688 0.592-0.909 1.65-0.96 2.88-1.083-0.357-0.188-2.692-0.48-3.84 0.775-0.135 0.826 0.454 1.44 0.48 4.035-4.541 5.87-10.916 2.399-15.84-4.584-6.504-16.453-7.005-24-4.32 2.86 0.192 1.03 0.743 0.48 3.36 1.162-1.718 1.808-3.952 4.8-3.84-0.383 0.897-0.802 1.758-0.96 2.88 0.767-0.673 1.227-1.653 1.44-2.88 1.515 4.59-1.06 7.917-0.96 13.44-1.336-1.064-1.709-5.109-0.96-6.72-1.746 1.134-1.063 4.697-1.44 7.2-1.229-0.531-0.942-2.577-0.96-4.32-2.224 1.042-0.338 2.805-0.96 3.84-1.137-0.943-0.977-3.183-0.96-5.28-2.049 0.191-0.458 4.022-0.96 5.76-2.017-2.746-0.69-8.503 0.48-11.04-1.854 2.318-2.749 7.022-1.92 10.56-2.999-2.871-0.247-10.217 2.4-12.48-6.959 1.497-9.676 13.407-3.84 18.24v6.72c-5.61-4.261-10.002-9.384-10.56-16.8-1.061-14.128 11.814-25.139 24.962-24.48 14.333 0.719 27.416 19.12 17.28 34.56 2.058-0.669 3.974-5.622 4.8-9.12 2.175 1.277-0.415 4.246 0.48 5.28-0.092 0.545-0.481 0.267-0.48 0-2.65 6.375-5.962 12.449-12.48 14.4zm-18.72-22.56c-0.235 2.26 0.865 1.161 0.48-0.48 0.595-2.125 1.418-4.021 2.4-5.76-2.11 0.93-2.189 3.892-2.88 6.24zm2.4-1.44c1.449 0.74 1.263-2.484 0.48-2.4 0.197 1.157-0.877 1.043-0.48 2.4z" fill="#fff"/>
	<path d="m98.4 15.36c1.6 1.281 2.817 2.943 3.84 4.8-0.091 0.545-0.481 0.267-0.479 0-0.408-0.088-0.453 0.187-0.48 0.48 0.74-2.051-3.049-2.35-2.88-5.28z" fill="#fff"/>
	<path d="m82.56 25.92c3.055 0.311 4.171 6.705 4.32 11.52-1.804-0.814-1.029-3.531-1.44-5.28-0.607-2.586-1.317-5.055-2.88-6.24z" fill="#fff"/>
	<path d="m84.48 25.92c1.42-1.543 1.791 2.021 3.36 1.92 0.369 2.182 1.027 5.874 0.96 8.16-0.028 0.938 0.908 2.536-0.48 0.48-0.028-4.772-2.043-7.557-3.84-10.56z" fill="#fff"/>
	<path d="m104.64 25.92c-0.435 0.846-1.767 0.793-1.92 1.92-0.87-0.285 0.63-3.674 1.92-1.92z" fill="#fff"/>
	<path d="m74.88 26.4c-0.981 1.739-1.805 3.635-2.4 5.76 0.385 1.641-0.715 2.74-0.48 0.48 0.691-2.348 0.77-5.31 2.88-6.24z"/>
	<path d="m93.12 35.52c-0.749-3.25-2.307-5.693-3.359-8.64 1.602 2.275 4.429 5.216 3.359 8.64z" fill="#fff"/>
	<path d="m82.56 27.84c1.16 3.078 1.907 8.621 1.44 10.56-0.238-3.519-1.973-7.843-1.44-10.56z" fill="#fff"/>
	<path d="m92.64 29.28c1.552-0.259 2.306 4.405 2.88 6.72-1.793-1.407-1.341-5.06-2.88-6.72z" fill="#fff"/>
	<path d="m69.6 40.32c0.781 1.139 1.891 1.949 2.4 3.36-1.509-0.41-1.991-1.849-2.4-3.36z" fill="#fff"/>
	<path d="m68.64 41.76c0.365 0.755 1.522 0.717 1.44 1.92-1.266 0.146-1.238-1.002-1.44-1.92z" fill="#fff"/>
	<path d="m72 42.24c0.148-1.015 1.667 0.504 1.44 1.44-1.706 0.746-0.29-1.63-1.44-1.44z" fill="#fff"/>
	<path d="m73.92 41.76c0.175 1.105 2.101 0.459 1.92 1.92h-1.44c0.061-0.861-0.588-1.013-0.48-1.92z" fill="#fff"/>
	<path d="m75.84 42.24c0.617-1.343 0.993 1.512 2.4 0.96-0.857 2.28-1.298-0.715-2.4-0.96z" fill="#fff"/>
	<path d="m87.36 42.72c0.623-1.482 0.633 1.378-0.479 0.96-0.917-0.413 0.517-0.285 0.479-0.96z" fill="#fff"/>
	<path d="m56.64 49.92c1.932 0.948 2.321 3.438 4.32 4.32-1.678 0.702-3.526-2.542-4.32-4.32z" fill="#fff"/>
	<path d="m90.24 64.8c0.616-0.238-1.769 7.418 0.96 6.24 0.245 2.079-1.374 0.461-1.92 0.48-3.033 0.105-7.272 0.058-12.48 0-0.562 0.078-0.405 0.875-0.48 1.44-3.437-0.808-5.458 0.717-7.68 0 0.077-0.562 0.875-0.405 1.44-0.48-1.883-1.358 1.807-3.846 1.44-6.72 0.681 0.042 1.359 0.08 1.44-0.48 1.212 0.868 2.333 1.827 1.92 4.32 1.109-0.491 0.993-2.207 0.96-3.84 4.605 2.433 5.828 4.842 12 5.28 2.533-1.38 0.189-4.658 2.4-6.24z" fill="#fff"/>
	<path d="m48.48 77.28c1.879-0.139-1.509 0.682-2.88 1.44-21.977 12.157-40.34 31.87-42.24 64.32-0.59 0.536-0.986 0.418-0.96-0.48 3.665-33.46 20.33-53.909 46.08-65.28z"/>
	<path d="m96.48 89.28c3.333 1.243 9.568 3.286 9.12 5.28 1.222 0.522 1.861-2.248 1.92 0-1.375 0.293 2.633 2.982 4.32 3.36-1.585 1.695-2.784-0.921-3.84-1.44-8.223-4.036-19.645-7.736-33.601-6.72-28.493 2.074-50.688 26.244-53.28 52.8-1.279 13.106 3.133 24.137 8.16 32.641-1.958 1.674-3.303-6.137-4.32-3.84-1.568-6.795-4.991-9.894-4.8-19.681-0.467 0.014-0.373 0.588-0.48 0.96-1-3.25 0.425-5.345-0.48-9.6-1.111 1.929-0.167 5.913-0.48 8.64-2.465-9.906 1.561-27.325 8.16-32.64v-1.92c1.245 1.243 3.807-4.076 3.84-4.32 0.037-0.268-0.876-0.652-0.96-0.48 0.324-0.668 1.068-0.017 1.44-0.48 0.66-0.822 1.52-4.129 2.4-5.28 5.572-7.292 14.696-12.407 24-15.84-0.435 0.845-1.767 0.793-1.92 1.92 1.935-0.326 3.853-1.783 6.24-2.88-0.406-1.131-2.105 0.399-2.88 0.48 1.56-1.314 7.125-2.859 10.08-3.36 32.174-5.458 56.59 12.509 66.72 34.561-2.692-2.944-4.112-9.056-7.681-9.601 1.948-0.104-0.137-1.61-0.96-2.88-0.578 0.542-0.87 1.37-2.399 0.96 0.663-0.776 1.698-1.182 1.439-2.88-1.549-0.43-0.674 1.565-1.439 1.92-1.352-0.485 0.132-2.039 0-2.88-1.267 1.204-2.354-4.628-3.84-2.4-0.604-0.119-0.484-0.955 0-0.96-6.15-6.489-13.74-11.542-24.48-13.44zm-76.8 51.36c0.077-0.334-0.168-2.793-0.48-1.439-0.422 1.83 0.258 2.4 0.48 1.44z" fill="#fff"/>
	<path d="m31.2 184.32c1.198 1.532 3.828 4.157 3.84 5.279-1.146-1.89-3.302-2.78-3.84-5.28z" fill="#fff"/>
	<path d="m102.24 87.36c1.2-2.311 2.95-0.568 0 0z"/>
	<path d="m58.08 87.84c-2.661-0.853-1.023-2.491 0 0z"/>
	<path d="m87.36 92.64c4.229-1.024 9.093 1.463 12.96 2.4-4.227 0.139-8.082-2.42-12.96-2.4z"/>
	<path d="m67.2 93.12c-3.562 1.618-5.959 1.427-9.12 3.36 0.301-1.947 5.768-2.866 9.12-3.36z"/>
	<path d="m68.16 94.08c0.091-0.545 0.481-0.267 0.48 0 0.908 0.952 2.268 0.233 3.36 0 1.138-0.396 2.211 0.676 0.48 0.48-7.905 1.215-14.415 3.825-20.16 7.2-0.14-0.719-0.641-0.858-1.44-1.92-6.327 4.073-12.148 8.651-16.32 14.88 0.119 0.521 0.954 0.326 0.96 0.96 0.716-1.064 3.379-2.673 2.4-3.84 1.74-0.895 4.272-2.207 3.36-4.32 1.804 1.43 4.837-2.04 4.32-2.88 1.214-0.097 3.791-1.608 5.28-2.88-4.165 4.796-12.486 9.593-16.32 16.32-1.016 1.17 0.564-1.506 0.96-1.92-0.119-0.521-0.955-0.326-0.96-0.96-1.542 0.219-1.652 1.868-2.4 2.88 0.475-2.252 2.264-4.869 3.84-6.72 4.838-5.682 11.741-10.562 18.72-13.92-0.77 0.831-1.794 1.406-2.88 1.92 0.254 0.386 0.501 0.779 0.48 1.44 2.263-0.297 2.942-2.177 5.28-2.4-1.634-1.88-1.243-2.271 0.48-0.48 3.226-1.628 9.276-2.384 10.08-3.84z"/>
	<path d="m34.08 182.4c-7.286-9.329-13.258-23.267-12-39.841 2.54-33.48 41.081-64.493 80.16-48 19.281 8.138 40.044 32.245 34.08 62.4-4.025 20.354-18.752 37.067-37.439 43.68-16.095 5.695-36.241 3.681-49.92-4.8-4.969-3.08-8.496-7.646-13.44-12.479-0.37-0.36-1.13-0.56-1.441-0.96zm44.64-89.28c1.64 0.36 0.609-1.95 2.4-1.44 2.047 0.318 4.38 1.592 5.76 0-3.189 0.458-6.503-1.482-9.12 0 0.603 0.197 0.981 0.619 0.96 1.44zm-11.04 0c2.421-0.299 4.85-0.59 6.72-1.44-2.82-0.1-5.08 0.36-6.72 1.44zm32.64 1.92c-3.867-0.937-8.73-3.424-12.96-2.4 4.878-0.02 8.733 2.539 12.96 2.4zm-42.24 1.44c3.161-1.933 5.559-1.742 9.12-3.36-3.352 0.494-8.819 1.413-9.12 3.36zm26.4-1.92c0.069-0.567 0.854-1.088 0-1.44-0.069 0.567-0.855 1.088 0 1.44zm-26.4 3.36c-1.723-1.792-2.114-1.4-0.48 0.48-2.338 0.223-3.018 2.103-5.28 2.4 0.021-0.661-0.226-1.054-0.48-1.44 1.086-0.514 2.111-1.089 2.88-1.92-6.979 3.358-13.882 8.238-18.72 13.92-1.576 1.851-3.365 4.468-3.84 6.72 0.748-1.012 0.858-2.661 2.4-2.88 0.005 0.634 0.841 0.438 0.96 0.96-0.396 0.414-1.976 3.09-0.96 1.92 3.834-6.727 12.155-11.524 16.32-16.32-1.489 1.272-4.065 2.784-5.28 2.88 0.517 0.84-2.517 4.31-4.32 2.88 0.913 2.113-1.62 3.425-3.36 4.32 0.979 1.167-1.684 2.775-2.4 3.84-0.006-0.634-0.841-0.438-0.96-0.96 4.171-6.229 9.993-10.807 16.32-14.88 0.799 1.062 1.3 1.201 1.44 1.92 5.745-3.375 12.255-5.985 20.16-7.2 1.731 0.196 0.658-0.876-0.48-0.48-1.092 0.233-2.452 0.952-3.36 0 0.001-0.267-0.389-0.545-0.48 0-0.804 1.456-6.854 2.212-10.08 3.84zm21.12 12.96c-1.271-2.961-1.769-8.692-2.4-11.04-0.387-1.439 0.231-4.042-1.44-4.32-1.082 2.875 1.898 7.76 0.48 11.04 0.796 0.456 2.879 4.661 0 4.32-1.643-0.47 1.284-2.77-0.48-3.36-0.17 1.589-0.375 3.145-1.44 3.84 3.52-0.312 8.492 0.458 10.56 0-0.826 0.026-1.23-0.37-1.44-0.96-0.094-4.944 0.134-11.96 0-15.36-3.748 2.365 0.613 13.229-2.399 15.84 0.255-5.185-0.551-11.431 0.48-15.84h-1.44c-0.106 7.45-0.034 11.26-0.481 15.84zm-4.8-15.36c-3.074-0.554-1.054 1.466 0 0zm32.16 4.8c-0.147-1.107 1.387-0.533 1.44-1.44-2.343-0.707-5.126-3.502-7.2-2.88 1.93 1.567 6.29 1.689 5.76 4.32zm-5.28-2.4c-0.952-0.047-4.208-1.688-3.359-0.48 1.275-0.271 2.439 1.975 3.359 0.48zm-48.96 5.76c0.121 0.214 3.406-2.571 0-0.96-0.562 0.266-1.229 1.167-3.36 2.88 1.478 0.357 0.922-1.318 2.4-0.96 2.146 3.135 5.274 5.286 6.24 9.6 0.082-0.718-0.171-1.771 0.48-1.92 0.724 1.516 2.427 2.053 2.4 4.32-0.908-0.107-1.059 0.541-1.92 0.48-0.667-0.043-0.294-3.453-0.96-1.92-0.348 1.468 0.828 1.412 0.48 2.88 2.297-1.063 4.551-2.169 6.24-3.84-2.335-1.283-2.984-4.313-4.32-6.72-1.185-2.135-2.53-5.901-5.28-6.24 2.262 4.938 5.461 8.938 7.68 13.92-2.143-2.017-4.6-3.72-5.28-7.2-2.907-1.11-3.903-2.74-4.8-4.32zm59.04-2.4c-0.51 2.79 2.08 0.2 0 0zm-14.4 13.44c-0.895 0.459-1.604-1.438-1.921 0 0.981 0.46 1.9 0.98 2.881 1.44 2.527-4.832 5.44-9.279 8.159-13.92-0.66 0.021-1.054-0.226-1.439-0.48-2.51 4.37-4.943 8.82-7.68 12.96zm-42.24-11.04c2.077 5.61 0.48-0.74 0 0zm63.84 7.2c1.14-0.3 2.234-0.646 2.4-1.92-1.508-0.227-1.269 1.292-2.4 1.44-1.154-1.814-5.295-5.465-5.76-4.8 2.04 1.64 4.25 3.11 5.76 5.28zm0-3.84c-0.491 0.056-0.971-2.071-1.44-0.48 0.69-0.26 1.17 1.87 1.44 0.48zm1.92 6.24c0.747 0.125 0.333 1.053 0 1.44-13.678 7.922-23.631 19.569-37.44 27.36-8.835-5.018-12.938 9.577-4.8 11.52-0.038 4.276 0.205 10.324-0.479 12.48-2.649-0.089-4.372 0.748-5.76 1.92 1.269 0.674 2.57-2.031 5.28-1.44-0.235 1.516 0.865 1.695 0.48 3.36-3.971 2.646 0.43 7.693-0.48 12.96-1.254 0.334-5.876 1.151-6.72-0.479 0.565-0.075 1.362 0.082 1.44-0.48h-1.92c-0.004 2.069 1.531 1.396 0 2.88 2.554 1.755 4.862-2.15 7.2-0.479 0.099 1.333-1.716 4.941 0.48 5.279-0.058-2.298-0.032-4.512 0.96-5.76-0.145 1.265 0.665 1.575 1.92 1.44 1.203-0.397 1.518-1.682 2.399-2.4 2.563-0.521 7.017-1.216 10.08-1.439 1.146-0.084 3.957-2.109 3.36 0.96-0.649-0.151-0.917-0.684-1.92-0.48-0.746 1.706 1.63 0.29 1.44 1.44 0.149 3.592-1.582 7.04-3.36 7.199 0.747 0.126 0.333 1.053 0 1.44-0.683-1.758-3.143 0.123-1.92-0.48 0.825-0.025 1.23 0.37 1.439 0.96-1.121 1.424-3.29 3.87-5.279 2.881-0.36 2.035-5.531 3.306-6.72 1.439 1.526 0.215 4.736-0.341 3.84-0.96-2.846 1.041-7.156 0.376-9.601-0.479 0.287 1.247-0.192 1.727-1.44 1.439 0.319-0.681 2.107-3.788 0.96-2.88-0.562 0.718-0.597 1.963-1.44 2.4-1.566-1.165-5.144-2.843-4.8-4.32 2.172-1.004 2.685 3.16 4.8 2.4-1.937-0.955-2.935-4.278-5.76-2.881-0.459-0.396-0.981-3.104-1.44-1.92 1.644 3.419 3.919 6.178 7.2 7.681 2.744 1.257 6.181 0.712 7.68 1.439 0.416 0.202-0.35 1.473 0.48 1.44-0.234 0.009 0.35-1.38 0.48-1.44 3.904-1.803 7.677-1.733 10.56-4.319 11.113-9.973 3.047-28.795-12.48-29.28 0.834-3.165 0.36-7.64 0.48-11.521 5.357-0.571 8.263-5.633 5.28-10.56 7.438-3.817 12.595-10.567 19.68-14.88 1.238-0.754 3.064-1.027 4.32-1.92 4.452-3.165 7.225-8.829 12.479-11.04 1.201-0.634 1.503 1.897 1.92 0.479-1.291 0.016-1.291-2.415 0-2.4 1.09-0.235 1.436 2.65 1.92 1.44-0.918-0.705-1.962-3.766-2.88-2.88 1.36 1.9-1.74 1.5-1.92 1.44zm11.52 13.92c0.266-1.628-3.183-7.876-4.801-9.601 0.553 1.408-2.302 1.783-0.96 2.4 0.09-0.711 1.16-0.44 1.92-0.48 1.18 2.66 2.45 5.23 3.84 7.68zm-96.96-6.24c0.907-0.053 0.333-1.587 1.44-1.44 0.194 1.902 3.612 3.087 2.88 4.32-2.168-0.391-3.731-1.388-5.76-1.92 0.371 1.227-1.878 2.207-0.48 2.88-0.026-0.825 0.37-1.23 0.96-1.439 4.999 1.941 8.44 3.717 13.44 4.8 0.075 0.564-0.083 1.362 0.48 1.439 0.107-1.204 2.433-2.644 1.44-3.359-0.102 0.538-0.533 0.747-0.96 0.96-4.957-1.923-9.847-3.914-12-8.641 0.267 0.002 0.545-0.389 0-0.479-0.545 0.57-2.381 3.9-1.44 2.88zm-4.8-0.96c-0.769 1.889 2.073 0.167 1.92 1.44-0.747-0.039-0.333 1.396 0 0.479 0.067-0.933 2.562-3.334 1.44-2.4-1.106 1.15-1.548 0.73-3.36 0.48zm95.04 2.4c0.233 0.566 0.512 1.088 0.96 1.439-0.296-1.304-0.952-2.248-1.92-2.88-4.247 2.793-8.42 5.66-13.439 7.68 3.839-3.521 9.157-5.562 13.439-8.64-2.569-0.394-5.354 1.472-7.68 2.88-2.408 1.457-4.698 3.692-7.2 4.8 1.641 0.919 1.645 3.477 3.36 4.32 0.196-1.156-0.877-1.043-0.48-2.4 4.6-2.12 8.33-5.11 12.96-7.2zm-97.44 4.32c-0.27-1.275 1.975-2.444 0.48-3.359 0.224 1.23-1.697 2.72-0.48 3.36zm50.88-2.4c-0.757-0.044-0.376-1.225-1.44-0.96-0.422 0.99 1.582 1.82 1.44 0.96zm3.36 0.96c-1.826 0.705-0.094-2.146-1.92-1.44-0.627 1.48 1.362 2.72 1.92 1.44zm-5.76 1.92c0.026-0.826-0.369-1.23-0.96-1.44-0.026 0.83 0.369 1.23 0.96 1.44zm53.76 1.44c-0.213-1.226-0.673-2.206-1.439-2.88 0.37 1.07 0.28 2.6 1.44 2.88zm-48-1.44c0.826 0.025 1.23-0.37 1.44-0.96-0.826-0.03-1.23 0.37-1.44 0.96zm3.84 3.36c1.312-1.408-2.298-4.888-2.4-1.92 3.121-0.69 0.419 1.47 2.4 1.92zm-38.88 0.48c-0.783-1.155-2.623-3.752-3.84-2.88 1.63 0.61 1.818 2.66 3.84 2.88zm25.44-1.92c0.836-0.036 1.493 0.107 1.92 0.479 0.361-1.64-1.834-1.87-1.92-0.48zm6.24-0.48c1.824 1.33 2.11-1.76 0 0zm55.2 3.36c-0.122-1.798-0.754-3.087-1.92-3.84-0.316 0.645-1.026 0.894-1.921 0.96-0.048 0.903 0.587 3.498 0.96 2.4 0.108-0.908-0.541-1.06-0.479-1.921 0.907 0.108 1.059-0.541 1.92-0.479 0.66 0.78 0.4 2.48 1.44 2.88zm-59.04-2.4c1.042 2.159 2.6 3.801 4.32 5.28 0.046-1.233 1.874-0.687 1.92-1.92-3.408 2.282-2.674-1.879-3.84-3.84-0.623 1.19 1.071 2.329 0 2.4-1.35 0.069-1.384-1.176-1.44-2.4 0.373-0.107 0.947-0.014 0.96-0.48-1.31-0.35-0.966 0.95-1.92 0.96zm8.64-0.48c-1.94-1.69-1.132 1.54 0 0zm-1.44 2.4c-0.713-0.756-2.145-0.535-1.92 0.959 1.822 0.511 3.658-1.418 2.879-1.92-0.101 0.54-0.532 0.75-0.959 0.96zm50.4 4.32c-1.472-0.471 0.552-1.28 0.48-1.92-0.565-0.075-1.363 0.083-1.44-0.479-0.69-3.15-0.31 4.63 0.96 2.4zm2.88 3.36c0.058-2.778-0.571-4.868-1.439-6.721 0.3 2.42 0.59 4.85 1.44 6.72zm-111.84 12.96c-0.378-2.138 0.328-3.192 0.96-4.32-0.585-0.054-1.136-0.144-0.96-0.96-0.465-4.531 1.619-10.551 0.96-12.479-1.103 4.29-2.251 14.2-0.96 17.76zm110.88-12.48c-3.014 0.265-0.776-1.755-2.399-2.88-0.54 2 0.86 4.55 2.4 2.88zm-0.48 12c-1.942-1.861 0.899-9.181-0.48-10.56 0.986 0.986-1.77 9.543-0.479 11.04 3.602-0.679 1.02 3.829 0.96 5.28-1.058 0.316-1.917-2.693-1.92-0.48-0.455 1.734 1.89 0.67 2.88 0.96 0.756-5.509 1.86-14.237 0.479-17.76-0.56 3.76 1.34 9.98-1.44 11.52zm-108-8.16c-0.005-0.704 0.182-3.929-0.48-2.4 0.005 0.7-0.181 3.93 0.48 2.4zm105.6-0.96c0.131-0.653-0.297-1.873-0.48-0.96-0.13 0.65 0.3 1.87 0.48 0.96zm-98.88 3.36c-1.394 0.526-3.407 0.434-4.8 0.96-0.075-0.564 0.083-1.362-0.48-1.439 0.276 0.844-0.58 2.819 0.48 2.88 4.729-1.19 10.155-1.686 15.36-2.4-0.263-0.697 0.561-2.48-0.48-2.399-2.934 3.053-12.432 1.928-14.88 0-0.107-0.373-0.013-0.947-0.48-0.961-0.586 3.47 3.982 1.78 5.28 3.36zm83.04-1.92v5.76c5.145 0.296 11.486-0.606 15.84 0.48-0.123-2.344 0.805-3.252-0.48-4.8-3.845 0.799-11.034 0.799-14.88 0 1.843-0.834 4.881-0.466 7.681-0.48 2.899-0.016 6.43 0.805 7.68-0.96-4.38-1.14-12.79-0.28-15.84 0zm-90.72 1.92h0.96v-0.96h-0.96v0.96zm16.8 2.4c-3.718-0.036-10.036 1.021-14.4 0.479 0.276 0.844-0.58 2.82 0.48 2.88 0.075-0.564-0.083-1.362 0.48-1.439 3.579 0.008 7.899-0.503 11.52-0.48 1.413 0.009 3.53 0.814 3.84-0.479-0.148-1.1-1.176-0.95-1.92-0.96zm91.2 6.24c0.077-0.334-0.168-2.793-0.48-1.439-0.42 1.83 0.26 2.4 0.48 1.44zm-108.96 1.44c0.063-0.631 0.073-3.473-0.48-1.92-0.063 0.63-0.073 3.47 0.48 1.92zm0.96 2.88c-1.303 0.344 0.343-2.264-0.96-1.92-0.273 0.98 0.146 3.6 0.96 1.92zm105.12 7.2c0.257-3.455 2.514-4.492 1.44-7.68-0.22 2.51-2.55 5.44-1.44 7.68zm3.84-4.8c-0.224-0.918 1.479-2.066-0.48-1.92 0.08 0.72-0.17 1.77 0.48 1.92zm-6.72 6.24c-0.232 0.567-0.512 1.089-0.96 1.44-2.998-3.067-11.091-4.139-12.96-7.68-0.199-0.378 0.547-0.655 0.48-0.96-2.251 2.233-5.055 6.459-5.28 9.12 1.362-1.636 5.19 2.027 7.68 3.359 2.695 1.442 5.356 2.596 7.2 2.88-1.966-3.154-6.674-3.565-9.12-6.239 4.216 0.744 6.654 3.265 10.08 4.8-0.001-1.602 1.562-1.639 1.44-3.36-4.418-2.782-9.965-4.435-13.44-8.16 4.725 2.636 10.215 4.506 13.92 8.16-0.05-1.17 2.23-4.05 0.96-3.36zm-91.68 7.2c4.078-2.644 8.716-7.281 13.44-7.68-5.072 2.288-7.597 7.123-12.48 9.6-0.612-1.201 0.244-1.502-0.48-1.92-0.669 1.812 1.604 4.344 3.36 5.28 0.593-1.553-1.553-0.367-0.96-1.92 3.435-4.086 8.271-6.77 11.04-11.521-0.675-0.125-0.547-1.053-0.96-1.439-5.098 1.783-9.778 6.539-13.92 7.68 2.741-2.502 7.066-5.407 10.08-7.2 1.216-0.724 2.926-0.748 3.36-1.92-4.866-0.03-9.611 6.681-14.4 6.721 3.889-3.547 10.686-4.749 12.96-9.601-4.428 2.933-8.937 5.784-13.92 8.16 0.433 2.45 1.39 4.37 2.88 5.76zm-7.2-8.64c0.006-0.635 0.841-0.438 0.96-0.96-1.107-0.813-0.635-3.205-1.92-3.84 0.32 1.87 0.976 3.93 0.96 4.8zm-1.44 0c-0.724-0.876-0.509-2.69-1.44-3.36 0.039 1.27 0.846 4.23 1.44 3.36zm101.76 3.36c0.102-0.539 0.532-0.748 0.96-0.961 0.007 0.63 1.331 0.612 1.439 0-1.785 0.506-0.94-1.618-1.92-1.92 0.21 1.07-1.48 2.6-0.48 2.88zm-97.44 5.76c-1.695-1.984-2.318-5.042-3.84-7.2-0.853-2.281-0.114 0.614 0 0.96 2.724 8.235 12.417 19.422 18.72 22.56-5.361-4.472-12.146-9.833-13.92-16.319-0.006 0.48-0.841 0.6-0.96 0zm4.8 5.28c0.106-0.373 0.402-0.558 0.96-0.479 2.014 2.866 5.305 6.865 8.16 8.64 1.329 0.826 7.983 5.059 8.16 5.761 0.07 0.275-2.739 1.8-0.48 1.439 0.761-3.193 3.332 0.959 4.8-0.479-12.98-5.58-21.864-15.257-27.84-27.841 0.791 5.38 5.553 9.05 6.24 12.96zm30.24-6.72c1.083-1.477 1.772-3.348 3.84-3.84 0.026 0.613 0.615 0.665 0.48 1.44-0.754 0.045-1.665-0.064-1.44 0.96 1.407-0.033 1.783-1.098 2.4-1.92-2.34-0.114-0.886-1.336 0-1.921-2.443 0.76-5.656 3.29-5.28 5.28zm7.2-2.88c-0.846 0.138-1.486-2.26-1.92-0.96 0.565 0.14 1.205 2.54 1.92 0.96zm56.16 1.44c0.345-0.396 1.505-3.104 0.479-1.92-0.34 0.4-1.5 3.1-0.48 1.92zm-0.96 0.96c-0.425-0.369-1.371 0.295-1.44 0.479-0.68 1.81 2.39 0.34 1.44-0.48zm-61.92 1.92c-2.782-1.38-1.263 1.18 0 0zm58.56 4.8c-0.013-1.952 2.806-3.57 1.92-4.8-0.36 1.58-3.01 3.37-1.92 4.8zm-71.04 8.16c-0.417 0.788-1.873 2.982-0.479 3.359 2.782-2.341 4.766-9.631 8.64-12.479-0.519 3.487-4.375 6.178-4.32 8.64 0.281-0.427 1.009-2.737 1.44-1.439-0.222 2.447-3.512 6.03-1.44 7.68 1.468-5.252 3.488-9.951 4.8-15.36-1.955-0.458-4.267-3.074-5.76-2.399 0.603 0.196 0.981 0.619 0.96 1.439-2.565 4.155-4.4 9.04-7.68 12.48 3.153 1.251 3.68-3.333 4.8-5.28 1.471-2.557 3.664-4.795 4.32-7.2h0.96c-1.13 3.72-4.688 7.63-6.241 10.56zm9.6-11.04c0.718-0.082 1.771 0.171 1.92-0.48-0.638-0.62-1.786-0.63-1.92 0.48zm47.04 13.44c0.603 0.197 0.98 0.619 0.96 1.44-1.5 0.581-2.088 2.073-3.84 2.4-0.115-0.686-0.791-0.81-0.961-1.44 1.016-0.22 3.992-2.666 2.881-1.92-1.576 0.185-2.117 1.403-3.36 1.92-0.196 1.156 0.877 1.043 0.479 2.4-5.925 2.715-12.37 4.909-19.199 6.72 16.536-2.344 29.355-10.964 36-21.601-0.99 1.523-2.85 3.252-3.84 3.36 1.012 1.356-1.931 2.852-2.881 3.84-0.114-0.521-0.79-1.152-0.96-0.479 1.013 1.628-3.091 4.412-4.319 3.84-0.244-2.563 2.532-2.68 3.84-3.84 2.959-2.627 4.853-6.358 8.16-8.641-0.799-1.507 1.785-1.961 0.479-2.399-3.58 5.7-8.99 9.57-13.44 14.4zm-44.64-13.44c2.694 2 1.371-0.8 0 0zm55.2 1.44c-0.07-0.638 1.614-1.785 0.48-1.92 0.07 0.64-1.95 1.45-0.48 1.92zm-12.48 12c0.104-2.765-0.537 0.367-1.44 0-1.284-0.521-2.695-3.74-4.32-5.76-1.756-2.183-3.535-3.879-4.8-5.28 0.897 2.859 3.563 9.594 3.84 9.601 0.316-1.756-1.038-1.842-0.96-3.36 2.028 1.492 3.48 3.561 4.8 5.76 1.4 0.13 1.48-1.08 2.88-0.96zm-42.72-6.72c0.698-0.263 2.481 0.562 2.4-0.479-0.565-0.075-1.363 0.082-1.44-0.48 0.372-0.107 0.947-0.014 0.96-0.479-1.202-0.08-1.503 0.74-1.92 1.44zm-2.88 1.44c0.894-0.066 1.604-0.316 1.92-0.96-1.878 0.758-0.994-1.246-1.92-1.44v2.4zm3.36 5.28h1.44c-0.467-1.001-1.366-4.037-2.4-2.88 1.018 0.38 1.871 1.98 0.96 2.88zm25.44-0.96c-0.639 0.072-1.448-1.951-1.92-0.479 0.639-0.07 1.449 1.95 1.92 0.48zm12 2.4c-0.988-0.132-0.451-1.788-1.439-1.92 0.14 0.72 0.62 3.47 1.44 1.92zm-17.76 2.4c0.081-1.202-0.737-1.503-1.439-1.921-0.083 1.2 0.737 1.5 1.439 1.92zm-6.24 0.96c0.757-1.764-0.949-3.47-1.92-1.92 2.173-0.89 0.835 1.72 1.92 1.92zm16.8 2.4c1.469-0.03 2.5-1.762 3.84-0.479-0.231-2.312 2.979-1.181 3.359-2.88-2.31 1.21-5.582 1.46-7.2 3.36zm-29.76 0.96c-3.004-0.178-7.873-3.792-9.12-1.92 2.197-0.48 6.276 3.12 9.12 1.92zm-4.8 0.96c-1.948-0.292-3.317-1.162-4.8-1.92 0.381 1.56 3.582 2.79 4.8 1.92zm28.32 0c0.637 0.598 3.764-2.374 5.28-0.96-0.441-1.93-4.968-0.36-5.28 0.96zm-16.32 0.96h4.8c-0.666-1.094-3.341-0.179-4.8-0.479-1.887-0.21-5.329-1.369-6.72-0.48 1.856 0.7 4.773 0.35 6.72 0.96zm5.76 1.92c2.028-0.531 6.25 1.131 6.72-0.96-1.144 0.221-5.487 1.536-5.76-0.479 2.167-1.39 5.107 0.333 6.24-1.44-2.973 0.39-7.432-0.71-7.2 2.88zm-13.44-1.92c-1.187 0.29-4.265-1.227-3.36 0 1.253-0.4 2.634 1.45 3.36 0z" fill="#fff"/>
	<path d="m100.8 96c2.074-0.622 4.857 2.173 7.2 2.88-0.054 0.907-1.588 0.333-1.44 1.44 0.53-2.631-3.83-2.753-5.76-4.32z"/>
	<path d="m97.92 97.44c-0.849-1.208 2.407 0.433 3.359 0.48-0.92 1.495-2.084-0.751-3.36-0.48z"/>
	<path d="m57.12 108c0.68 3.48 3.137 5.183 5.28 7.2-2.218-4.982-5.418-8.982-7.68-13.92 2.75 0.339 4.095 4.105 5.28 6.24 1.336 2.407 1.984 5.437 4.32 6.72-1.689 1.671-3.943 2.776-6.24 3.84 0.348-1.468-0.828-1.412-0.48-2.88 0.666-1.533 0.293 1.877 0.96 1.92 0.861 0.061 1.012-0.588 1.92-0.48 0.027-2.267-1.676-2.804-2.4-4.32-0.651 0.149-0.398 1.202-0.48 1.92-0.966-4.314-4.095-6.465-6.24-9.6-1.478-0.358-0.922 1.317-2.4 0.96 2.131-1.712 2.797-2.614 3.36-2.88 3.406-1.611 0.121 1.174 0 0.96 0.897 1.58 1.893 3.21 4.8 4.32z"/>
	<path d="m54.72 103.68c0.48-0.74 2.077 5.61 0 0z"/>
	<path d="m112.8 105.6c0.465-0.665 4.605 2.986 5.76 4.8 1.132-0.148 0.893-1.667 2.4-1.44-0.166 1.274-1.261 1.62-2.4 1.92-1.51-2.17-3.72-3.64-5.76-5.28z"/>
	<path d="m117.12 106.56c0.47-1.591 0.949 0.536 1.44 0.48-0.27 1.39-0.75-0.74-1.44-0.48z"/>
	<path d="m136.8 110.4c0.467 0.013 0.372 0.587 0.479 0.96 0.954-0.799 0.61 0.043 1.92 0-0.169 0.63-0.845 0.755-0.96 1.44-0.56-0.72-1.39-1.17-1.44-2.4z"/>
	<path d="m122.4 111.84c0.918-0.886 1.962 2.175 2.88 2.88-0.484 1.21-0.83-1.675-1.92-1.44-1.291-0.015-1.291 2.416 0 2.4-0.417 1.418-0.719-1.113-1.92-0.479-5.255 2.211-8.027 7.875-12.479 11.04-1.256 0.893-3.082 1.166-4.32 1.92-7.085 4.312-12.242 11.062-19.68 14.88 2.982 4.927 0.077 9.988-5.28 10.56-0.12 3.881 0.354 8.355-0.48 11.521 15.527 0.485 23.593 19.308 12.48 29.28-2.883 2.586-6.656 2.517-10.56 4.319-0.13 0.061-0.714 1.449-0.48 1.44-0.83 0.032-0.064-1.238-0.48-1.44-1.499-0.728-4.937-0.183-7.68-1.439-3.281-1.503-5.557-4.262-7.2-7.681 0.459-1.185 0.981 1.524 1.44 1.92 2.825-1.397 3.823 1.926 5.76 2.881-2.115 0.76-2.627-3.404-4.8-2.4-0.344 1.478 3.234 3.155 4.8 4.32 0.843-0.438 0.878-1.683 1.44-2.4 1.147-0.908-0.641 2.199-0.96 2.88 1.248 0.287 1.727-0.192 1.44-1.439 2.445 0.855 6.754 1.521 9.601 0.479 0.896 0.619-2.314 1.175-3.84 0.96 1.189 1.866 6.36 0.596 6.72-1.439 1.989 0.989 4.158-1.457 5.279-2.881-0.209-0.59-0.614-0.985-1.439-0.96-1.223 0.604 1.237-1.277 1.92 0.48 0.333-0.388 0.747-1.314 0-1.44 1.778-0.159 3.51-3.607 3.36-7.199 0.189-1.15-2.187 0.266-1.44-1.44 1.003-0.203 1.271 0.329 1.92 0.48 0.597-3.069-2.215-1.044-3.36-0.96-3.063 0.224-7.517 0.919-10.08 1.439-0.881 0.719-1.196 2.003-2.399 2.4-1.255 0.135-2.065-0.176-1.92-1.44-0.992 1.248-1.018 3.462-0.96 5.76-2.196-0.338-0.382-3.946-0.48-5.279-2.338-1.671-4.646 2.234-7.2 0.479 1.531-1.483-0.004-0.811 0-2.88h1.92c-0.078 0.562-0.875 0.405-1.44 0.48 0.843 1.631 5.466 0.813 6.72 0.479 0.91-5.267-3.491-10.313 0.48-12.96 0.385-1.665-0.715-1.845-0.48-3.36-2.71-0.591-4.011 2.114-5.28 1.44 1.388-1.172 3.111-2.009 5.76-1.92 0.685-2.156 0.442-8.204 0.479-12.48-8.138-1.942-4.036-16.537 4.8-11.52 13.81-7.791 23.763-19.438 37.44-27.36 0.333-0.387 0.747-1.314 0-1.44 0.18 0.06 3.28 0.46 1.92-1.44zm-42.24 54.24c-0.038 2.426-1.148 1.64-1.44 4.32 1.407-0.128 1.783-0.663 2.4 0-0.043 0.756-1.224 0.375-0.96 1.439 0.754 3.804-2.425 6.204-0.96 9.12 1.424-2.181 2.503 0.779 4.32 0.96 3.919-0.972 9.758-1.731 12.48-2.4-1.148-4.932-4.156-8.003-7.681-10.56-1.353 0.428-1.669 4.383-2.88 3.36 0.57-1.51 1.62-2.54 1.92-4.32-2.349-0.69-4.69-1.39-7.199-1.92zm-1.92-15.84c9.226 0.706 2.474-11.619-1.92-5.28-0.414 2.81 0.582 4.22 1.92 5.28zm1.44 33.6c0.907 0.107 1.059-0.541 1.92-0.479-0.059-1.222-0.699-1.861-1.92-1.92-0.616 0.63-0.616 1.77 0 2.4zm-4.8 12.48c0.023 2.057 2.88 1.279 4.8 1.439-0.435-1.64-3.01-1.15-4.8-1.44z"/>
	<path d="m146.88 112.32c1.063-0.264 0.683 0.917 1.439 0.96 0.14 0.86-1.86 0.03-1.44-0.96z" fill="#fff"/>
	<path d="m128.64 113.28c-0.078 0.558 0.105 0.854 0.479 0.96-0.147 1.015-1.667-0.504-1.439-1.44 0.63 0.576 0.755 0.188 1.439 0 0.74 0.25 0.03 0.5-0.48 0.48z" fill="#fff"/>
	<path d="m128.16 119.52c-0.76 0.04-1.83-0.23-1.92 0.48-1.342-0.617 1.513-0.992 0.96-2.4 1.618 1.725 5.066 7.973 4.801 9.601-1.39-2.45-2.66-5.02-3.84-7.68z"/>
	<path d="m36.48 118.08c0.545 0.091 0.267 0.481 0 0.479 2.153 4.727 7.043 6.718 12 8.641 0.427-0.213 0.858-0.422 0.96-0.96 0.993 0.716-1.333 2.155-1.44 3.359-0.562-0.077-0.405-0.875-0.48-1.439-5-1.083-8.441-2.858-13.44-4.8-0.59 0.209-0.986 0.614-0.96 1.439-1.398-0.673 0.851-1.653 0.48-2.88 2.028 0.532 3.591 1.529 5.76 1.92 0.732-1.233-2.686-2.418-2.88-4.32-1.107-0.146-0.533 1.388-1.44 1.44-0.941 1.02 0.895-2.31 1.44-2.88z"/>
	<path d="m33.6 119.52c1.122-0.934-1.373 1.468-1.44 2.4-0.333 0.916-0.747-0.519 0-0.479 0.153-1.273-2.689 0.448-1.92-1.44 1.812 0.25 2.254 0.67 3.36-0.48z"/>
	<path d="m112.32 129.6c-0.396 1.357 0.677 1.244 0.48 2.4-1.716-0.844-1.72-3.401-3.36-4.32 2.502-1.107 4.792-3.343 7.2-4.8 2.326-1.408 5.11-3.273 7.68-2.88-4.282 3.078-9.601 5.119-13.439 8.64 5.02-2.02 9.192-4.887 13.439-7.68 0.968 0.632 1.624 1.576 1.92 2.88-0.448-0.352-0.727-0.873-0.96-1.439-4.63 2.09-8.36 5.08-12.96 7.2z"/>
	<path d="m28.32 123.36c1.495 0.915-0.75 2.084-0.48 3.359-1.217-0.64 0.704-2.13 0.48-3.36z"/>
	<path d="m77.28 123.36c1.064-0.265 0.684 0.916 1.44 0.96 0.142 0.86-1.862 0.03-1.44-0.96z"/>
	<path d="m128.64 125.76c0.767 0.674 1.227 1.654 1.439 2.88-1.16-0.28-1.07-1.81-1.44-2.88z"/>
	<path d="m83.52 128.64c0.103-2.968 3.713 0.512 2.4 1.92-1.981-0.45 0.721-2.61-2.4-1.92z"/>
	<path d="m132.48 129.12c-0.861-0.062-1.013 0.588-1.92 0.479-0.062 0.861 0.588 1.013 0.479 1.921-0.373 1.098-1.008-1.497-0.96-2.4 0.895-0.066 1.604-0.315 1.921-0.96 1.166 0.753 1.798 2.042 1.92 3.84-1.04-0.4-0.78-2.1-1.44-2.88z"/>
	<path d="m76.8 128.64c-0.013 0.467-0.587 0.373-0.96 0.48 0.056 1.225 0.09 2.47 1.44 2.4 1.071-0.071-0.623-1.21 0-2.4 1.167 1.961 0.433 6.122 3.84 3.84-0.046 1.233-1.874 0.687-1.92 1.92-1.721-1.479-3.279-3.121-4.32-5.28 0.954-0.01 0.61-1.31 1.92-0.96z"/>
	<path d="m140.64 176.64c1.385 0.215 1.135 2.065 2.399 2.4-0.57 0.85-2.04-1.45-2.4-2.4z"/>
	<path d="m142.08 172.8c1.107-0.146 0.533 1.387 1.44 1.44-0.15 1.02-1.67-0.5-1.44-1.44z"/>
	<path d="m147.84 164.64c0.56-1.285 1.254 1.25 1.92 1.44-0.96 1.68-1.1-1.41-1.92-1.44z"/>
	<path d="m83.04 130.56c0.778 0.502-1.058 2.431-2.879 1.92-0.225-1.494 1.207-1.715 1.92-0.959 0.426-0.21 0.857-0.42 0.959-0.96z"/>
	<path d="m131.52 133.44c0.077 0.562 0.875 0.404 1.44 0.479 0.071 0.64-1.952 1.449-0.48 1.92-1.27 2.23-1.65-5.55-0.96-2.4z"/>
	<path d="m133.92 132.48c0.868 1.853 1.497 3.942 1.439 6.721-0.85-1.87-1.14-4.3-1.44-6.72z"/>
	<path d="m24.48 134.4c0.659 1.929-1.425 7.948-0.96 12.479-0.176 0.816 0.375 0.906 0.96 0.96-0.632 1.128-1.338 2.183-0.96 4.32-1.291-3.56-0.143-13.47 0.96-17.76z"/>
	<path d="m132 136.8c1.623 1.125-0.614 3.145 2.399 2.88-1.54 1.67-2.94-0.88-2.4-2.88z"/>
	<path d="m12.48 138.24c1.08 1.641 1.536 3.903 1.92 6.239-1.984-0.74-1.151-4.29-1.92-6.24z"/>
	<path d="m149.76 139.2c-0.069 3.566-0.103 14.059 1.92 18.24-3.04-4.64-2.88-11.47-1.92-18.24z"/>
	<path d="m27.36 142.56c0.467 0.014 0.373 0.588 0.48 0.961 2.449 1.928 11.946 3.053 14.88 0 1.041-0.081 0.217 1.702 0.48 2.399-5.206 0.715-10.631 1.21-15.36 2.4-1.06-0.061-0.204-2.036-0.48-2.88 0.562 0.077 0.405 0.875 0.48 1.439 1.394-0.526 3.407-0.434 4.8-0.96-1.298-1.58-5.866 0.11-5.28-3.36z"/>
	<path d="m78.24 149.28c-1.161-1.265-1.161-3.536 0-4.801 1.468-0.348 1.412 0.829 2.88 0.48 1.603 2.11 0.659 4.85-2.88 4.32zm0.96-3.84c-0.24 0.615-1.215 2.87-0.48 2.88 0.232-0.854 0.512 0.208 0.96 0.479 0.072-0.888 1.625-0.295 1.92-0.96 0.196-1.156-0.877-1.043-0.48-2.399h-1.92z"/>
	<path d="m81.12 145.44c-0.397 1.356 0.676 1.243 0.48 2.399-0.295 0.665-1.848 0.072-1.92 0.96-0.448-0.271-0.728-1.334-0.96-0.479-0.735-0.01 0.24-2.265 0.48-2.88h1.92z" fill="#fff"/>
	<path d="m126.24 170.88c-3.705-3.654-9.195-5.524-13.92-8.16 3.476 3.726 9.022 5.378 13.44 8.16 0.121 1.722-1.441 1.759-1.44 3.36-3.426-1.535-5.864-4.056-10.08-4.8 2.446 2.674 7.154 3.085 9.12 6.239-1.844-0.284-4.505-1.438-7.2-2.88-2.489-1.332-6.317-4.995-7.68-3.359 0.226-2.661 3.029-6.887 5.28-9.12 0.066 0.305-0.68 0.582-0.48 0.96 1.869 3.541 9.962 4.612 12.96 7.68 0.448-0.352 0.728-0.873 0.96-1.44 1.27-0.69-1.01 2.19-0.96 3.36zm-9.6-2.88c-1.955-1.089-3.962-4.317-5.76-2.4 5.512 1.528 8.583 5.497 13.92 7.2-1.24-2.65-5.43-3.28-8.16-4.8zm-3.36 0.96c-0.113-1.806-1.968-1.872-3.359-2.4 0.11 1.81 1.97 1.87 3.36 2.4z"/>
	<path d="m124.8 172.8c-5.337-1.703-8.408-5.672-13.92-7.2 1.798-1.917 3.805 1.312 5.76 2.4 2.73 1.52 6.92 2.15 8.16 4.8z" fill="#fff"/>
	<path d="m32.64 168.96c4.983-2.376 9.492-5.228 13.92-8.16-2.274 4.852-9.071 6.054-12.96 9.601 4.789-0.04 9.534-6.751 14.4-6.721-0.434 1.172-2.144 1.196-3.36 1.92-3.014 1.793-7.339 4.698-10.08 7.2 4.142-1.141 8.822-5.896 13.92-7.68 0.413 0.387 0.285 1.314 0.96 1.439-2.769 4.751-7.605 7.435-11.04 11.521-0.593 1.553 1.553 0.367 0.96 1.92-1.756-0.937-4.029-3.469-3.36-5.28 0.724 0.418-0.132 0.719 0.48 1.92 4.883-2.477 7.408-7.312 12.48-9.6-4.724 0.398-9.362 5.036-13.44 7.68-1.49-1.39-2.447-3.31-2.88-5.76z"/>
	<path d="m139.68 160.8c-1.413 12.742-9.837 24.081-18.72 32.16-5.475 4.978-11.836 9.547-20.16 12 5.798-2.842 11.349-5.931 16.319-9.6 0.604-0.119 0.484-0.955 0-0.96 0.379-0.48 1.679 0.179 2.4-0.96 9.57-8.03 16.62-18.58 20.16-32.64z" fill="#fff"/>
	<path d="m128.16 182.4c0.276-1.004 1.19-1.37 0.96-2.881 0.844 1.192 0.879 0.785 1.44-0.479-0.148-0.826-1.667 0.623-1.44-1.44 0.631 0.49 1.77 0.471 2.4 0.96-0.79 1.61-1.42 3.38-3.36 3.84z" fill="#fff"/>
	<path d="m27.36 161.28c1.285 0.635 0.813 3.026 1.92 3.84-0.119 0.521-0.954 0.325-0.96 0.96 0.016-0.87-0.64-2.93-0.96-4.8z"/>
	<path d="m20.16 162.72c2.245 4.155 3.5 9.301 5.76 13.44-2.312-2.17-4.64-8.48-5.76-13.44z" fill="#fff"/>
	<path d="m25.44 162.72c0.931 0.67 0.716 2.484 1.44 3.36-0.594 0.87-1.401-2.09-1.44-3.36z"/>
	<path d="m129.12 166.56c0.979 0.302 0.135 2.426 1.92 1.92-0.108 0.612-1.433 0.63-1.439 0-0.428 0.213-0.858 0.422-0.96 0.961-1-0.28 0.69-1.81 0.48-2.88z"/>
	<path d="m14.4 168.48c0.633-3.71-0.352 2.06 0 0z"/>
	<path d="m32.16 175.2c1.773 6.486 8.559 11.848 13.92 16.319-6.303-3.138-15.997-14.324-18.72-22.56-0.114-0.346-0.853-3.241 0-0.96 1.522 2.158 2.145 5.216 3.84 7.2 0.119 0.6 0.954 0.48 0.96 0z"/>
	<path d="m29.76 167.52c5.977 12.584 14.86 22.261 27.84 27.841-1.469 1.438-4.039-2.714-4.8 0.479-2.259 0.36 0.55-1.164 0.48-1.439-0.177-0.702-6.831-4.935-8.16-5.761-2.855-1.774-6.146-5.773-8.16-8.64-0.558-0.078-0.854 0.106-0.96 0.479-0.687-3.91-5.449-7.58-6.24-12.96z"/>
	<path d="m71.52 168.48c-0.886 0.585-2.34 1.807 0 1.921-0.617 0.822-0.993 1.887-2.4 1.92-0.225-1.024 0.686-0.915 1.44-0.96 0.135-0.775-0.454-0.827-0.48-1.44-2.068 0.492-2.757 2.363-3.84 3.84-0.376-1.99 2.837-4.52 5.28-5.28z"/>
	<path d="m71.52 169.92c0.434-1.3 1.074 1.098 1.92 0.96-0.715 1.58-1.355-0.82-1.92-0.96z"/>
	<path d="m130.08 170.4c1.025-1.185-0.135 1.523-0.479 1.92-1.02 1.18 0.14-1.52 0.48-1.92z"/>
	<path d="m88.32 171.36c1.347-0.529 4.099 1.647 4.32 3.84-1.688-1.03-2.491-2.95-4.32-3.84z"/>
	<path d="m144.96 173.28c-0.71-1.46 1.69 3.45 0 0z"/>
	<path d="m143.04 177.12c0.26-1.7-1.699-1.181-1.439-2.88 1.469 0.611 1.411 2.748 2.88 3.359-0.27 1.39-0.75-0.74-1.44-0.48-0.135 0.775 0.454 0.826 0.48 1.439 0.705 0.916-2.308-1.955-2.4-3.359 1.23 0.05 0.69 1.87 1.92 1.92z"/>
	<path d="m66.72 175.2c-1.263 1.18-2.782-1.38 0 0z"/>
	<path d="m144.96 175.2c-0.72-1.01 2.45 3.44 0 0z"/>
	<path d="m127.2 175.2c0.886 1.229-1.933 2.848-1.92 4.8-1.09-1.43 1.56-3.22 1.92-4.8z"/>
	<path d="m144 175.68c-0.66-1.54 1.58 3.68 0 0z"/>
	<path d="m60.48 177.6h-0.96c-0.656 2.405-2.849 4.644-4.32 7.2-1.121 1.947-1.647 6.531-4.8 5.28 3.28-3.44 5.115-8.325 7.68-12.48 0.021-0.82-0.357-1.243-0.96-1.439 1.493-0.675 3.805 1.941 5.76 2.399-1.312 5.409-3.332 10.108-4.8 15.36-2.072-1.649 1.218-5.232 1.44-7.68-0.431-1.298-1.159 1.013-1.44 1.439-0.055-2.462 3.801-5.152 4.32-8.64-3.874 2.849-5.858 10.139-8.64 12.479-1.394-0.377 0.062-2.571 0.479-3.359 1.554-2.93 5.112-6.84 6.241-10.56z"/>
	<path d="m91.2 177.6c1.365-2.65 3.094-0.92 0 0z"/>
	<path d="m124.32 176.16c1.306 0.438-1.278 0.893-0.479 2.399-3.308 2.282-5.201 6.014-8.16 8.641-1.308 1.16-4.084 1.276-3.84 3.84 1.229 0.572 5.332-2.212 4.319-3.84 0.17-0.673 0.846-0.042 0.96 0.479 0.95-0.988 3.893-2.483 2.881-3.84 0.99-0.108 2.85-1.837 3.84-3.36-6.645 10.637-19.464 19.257-36 21.601 6.829-1.811 13.274-4.005 19.199-6.72 0.397-1.357-0.676-1.244-0.479-2.4 1.243-0.517 1.784-1.735 3.36-1.92 1.111-0.746-1.865 1.7-2.881 1.92 0.17 0.631 0.846 0.755 0.961 1.44 1.752-0.327 2.34-1.819 3.84-2.4 0.021-0.821-0.357-1.243-0.96-1.44 4.45-4.83 9.86-8.7 13.44-14.4z"/>
	<path d="m66.24 177.12c1.371-0.8 2.694 2 0 0z"/>
	<path d="m121.92 176.64c1.134 0.135-0.551 1.282-0.48 1.92-1.47-0.47 0.55-1.28 0.48-1.92z"/>
	<path d="m27.84 179.52c0.016-1.287 4.433 8.006 0.96 2.881-0.39-0.58-0.596-1.91-0.96-2.88z" fill="#fff"/>
	<path d="m141.6 179.52c-1.034-0.926 1.771 1.259 1.92 0.96 1.591 0.623-1.872-0.244 0 0.961-0.432 0.542-1.158-0.115-1.44 1.439-0.408 0.088-0.452-0.188-0.479-0.479-0.7 0.17 2.2-1.46 0-2.88z"/>
	<path d="m106.08 191.52c-1.319-2.199-2.771-4.268-4.8-5.76-0.078 1.519 1.276 1.604 0.96 3.36-0.276-0.007-2.942-6.741-3.84-9.601 1.265 1.401 3.044 3.098 4.8 5.28 1.625 2.02 3.036 5.239 4.32 5.76 0.903 0.367 1.545-2.765 1.44 0-1.4-0.12-1.48 1.09-2.88 0.96z"/>
	<path d="m79.68 181.44c1.221 0.059 1.861 0.698 1.92 1.92-0.861-0.062-1.013 0.587-1.92 0.479-0.616-0.63-0.616-1.77 0-2.4zm0.96 0.96h-0.96v0.96h0.96v-0.96z" fill="#fff"/>
	<path d="m24.48 181.92c1.804 0.472 1.109 3.409 0.48 0.48-0.998 0.54-1.017 0.52-0.48-0.48z" fill="#fff"/>
	<path d="m68.16 182.4c-0.013 0.466-0.588 0.372-0.96 0.479 0.077 0.562 0.875 0.405 1.44 0.48 0.081 1.041-1.703 0.217-2.4 0.479 0.417-0.7 0.718-1.52 1.92-1.44z"/>
	<path d="m144.48 184.32c1.807 1.377-1.276 1.885-0.479 3.84-0.387-0.254-0.779-0.501-1.44-0.48-0.28-2.04 2.59-0.93 1.92-3.36z" fill="#fff"/>
	<path d="m65.76 187.68c1.034-1.157 1.933 1.879 2.4 2.88h-1.44c0.911-0.9 0.058-2.5-0.96-2.88z"/>
	<path d="m142.56 188.16c0.545 0.091 0.267 0.481 0 0.479-0.101 0.821 0.818 1.243 0 1.44-0.269 0.782-0.349-0.458-0.96-1.44 0.56 0.08 0.85-0.11 0.96-0.48z" fill="#fff"/>
	<path d="m122.4 189.6c-0.97 1.11-1.595 2.565-3.36 2.88 0.296-0.427 0.58-0.858 0-0.96 1.01 0.21 1.74-1.45 3.36-1.92z" fill="#fff"/>
	<path d="m102.72 190.08c0.988 0.132 0.451 1.788 1.439 1.92-0.82 1.55-1.3-1.2-1.44-1.92z"/>
	<path d="m117.6 191.04c0.124 0.156-0.508 3.629-2.4 3.36 0.36-1.56 1.83-2.01 2.4-3.36z" fill="#fff"/>
	<path d="m104.16 194.4c-0.38 1.699-3.591 0.568-3.359 2.88-1.34-1.282-2.371 0.449-3.84 0.479 1.618-1.9 4.89-2.15 7.2-3.36z"/>
	<path d="m114.72 194.4c-0.078 0.558 0.105 0.854 0.479 0.96 0.709 2.312-1.471 0.01-1.439 0-1.552 0.498-0.174 0.974-1.92 1.439-0.566 0.151-2.163 1.498-3.84 1.92 0.406 1.407 1.545-0.287 2.399 0-0.736 0.763-2.133 2.131-3.36 0.96-0.648 1.752-3.162 1.638-3.84 3.36-0.906-0.054-0.333-1.587-1.439-1.44 0.312-0.814 1.104-0.3 0.96 0.48 0.41-0.87 1.236-1.324 1.439-2.4 0.428 0.213 0.858 0.422 0.96 0.96 0.497-1.449 0.198-0.614 0.96-0.96 0.773-0.351 1.915-2.041 2.881-2.399 0.5-0.186 1.477 0.283 1.92 0 1.6-1.02 1.8-3.43 3.84-2.88z" fill="#fff"/>
	<path d="m44.16 195.84c0.973-0.528 2.408-1.036 4.32 0-0.535 0.96-3.713 0.55-4.32 0z" fill="#fff"/>
	<path d="m58.08 196.8c1.248-1.872 6.116 1.742 9.12 1.92-2.844 1.2-6.923-2.4-9.12-1.92z"/>
	<path d="m47.04 196.8c1.12 0.142 1.12 1.299 0 1.44-0.237 1.517 2.382 0.178 1.92 1.92-1.313-0.447-2.047-1.474-3.36-1.92 0.042-0.93 2.055 1.01 1.44-1.44z" fill="#fff"/>
	<path d="m57.6 197.76c1.483 0.758 2.852 1.628 4.8 1.92-1.218 0.87-4.419-0.36-4.8-1.92z"/>
	<path d="m126.72 198.72c-0.153 1.127-1.485 1.074-1.92 1.92-0.92-0.34 1.11-1.73 1.92-1.92z"/>
	<path d="m87.36 199.68c-1.133 1.773-4.072 0.051-6.24 1.44 0.273 2.016 4.617 0.7 5.76 0.479-0.47 2.091-4.692 0.429-6.72 0.96-0.232-3.59 4.227-2.49 7.2-2.88z"/>
	<path d="m63.36 200.64c-0.905-1.227 2.173 0.29 3.36 0-0.726 1.45-2.107-0.4-3.36 0z"/>
	<path d="m34.56 203.52c0.389 0.092 0.479 0.482 0.96 0.48-0.091 0.389-0.481 0.479-0.48 0.96-0.389-0.091-0.479-0.481-0.96-0.48 0.091-0.39 0.482-0.48 0.48-0.96z" fill="#fff"/>
	<path d="m36.48 204c0.841 0.484 2.575 0.83 1.44 1.92-0.545-0.091-0.267-0.481 0-0.479-0.434-0.745-1.767-0.25-1.92 0-1.391-0.27 0.736-0.75 0.48-1.44z" fill="#fff"/>
	<path d="m96.96 205.92c-5.108 2.571-12.348 3.014-20.161 2.88 5.735-1.62 14.005-0.66 20.161-2.88z" fill="#fff"/>
	<path d="m43.2 208.32c-0.006 0.734-1.31 1.577-0.96 0-0.408-0.089-0.453 0.187-0.479 0.479-1.016-0.7 0.503-1.01 1.439-0.48z" fill="#fff"/>
	<path d="m53.28 212.64c-0.632 0.969-1.576 1.624-2.88 1.92-0.088-0.408 0.188-0.452 0.48-0.479-0.013-0.467-0.587-0.373-0.96-0.48 1.001-0.49 1.955-0.04 3.36-0.96z" fill="#fff"/>
	<path d="m54.72 213.12c0.882-1.174-0.871 1.97-2.4 1.439 0.332-0.95 1.28-1.28 2.4-1.44z" fill="#fff"/>
	<path d="m59.04 215.52c1.479 0.479-0.535 1.298-0.96 1.44-1.482-0.48 1.378-0.45 0.96-1.44z" fill="#fff"/>
	<path d="m62.4 216c-0.821 0.779-1.747 1.453-3.36 1.44 0.639-0.96 2.13-1.07 3.36-1.44z" fill="#fff"/>
	<path d="m65.76 216c-0.546 0.951-4.869 2.512-4.32 1.44 1.664-0.26 2.556-1.28 4.32-1.44z" fill="#fff"/>
	<path d="m65.76 217.44c0.038-0.045-0.048-0.465 0-0.48 3.399-1.13-2.632 2.35 0 0.48z" fill="#fff"/>
	<path d="m92.16 217.44c-0.87-1.186 2.087 0.753 3.36 0.479-0.789 1.37-2.604-0.23-3.36-0.48z" fill="#fff"/>
	<path d="m66.72 218.88c-0.858 0.136-0.985-0.453-0.48-0.479 3.496-1.21 5.011-1 0.48 0.48z" fill="#fff"/>
	<path d="m101.28 219.36c-0.775 0.135-0.826-0.454-1.439-0.48-1.157 0.639-3.597 2.46-4.801 0.48 2.19 0.56 5.37-2.37 6.24 0z" fill="#fff"/>
	<path d="m104.64 27.36c1.107 1.453 0.169 4.951 0.479 7.2-0.953-0.8-0.61 0.043-1.92 0v-6.24c0.821-0.101 1.243 0.818 1.44 0v-0.96z" fill="#fff"/>
	<path d="m87.36 168c-0.3 1.78-1.35 2.811-1.92 4.32 1.211 1.022 1.527-2.933 2.88-3.36 3.524 2.557 6.532 5.628 7.681 10.56-2.723 0.669-8.562 1.429-12.48 2.4-1.816-0.181-2.896-3.141-4.32-0.96-1.465-2.916 1.714-5.316 0.96-9.12-0.264-1.064 0.917-0.684 0.96-1.439-0.617-0.663-0.993-0.128-2.4 0 0.292-2.681 1.402-1.895 1.44-4.32 2.508 0.53 4.849 1.23 7.199 1.92zm5.28 7.2c-0.222-2.192-2.974-4.369-4.32-3.84 1.829 0.89 2.632 2.81 4.32 3.84zm-1.44 2.4c3.094-0.92 1.365-2.65 0 0zm1.92 0.48h0.96v-0.96h-0.96v0.96z" fill="#fff"/>
</g>
<metadata><rdf:RDF><cc:Work><dc:format>image/svg+xml</dc:format><dc:type rdf:resource="http://purl.org/dc/dcmitype/StillImage"/><cc:license rdf:resource="http://creativecommons.org/licenses/publicdomain/"/><dc:publisher><cc:Agent rdf:about="http://openclipart.org/"><dc:title>Openclipart</dc:title></cc:Agent></dc:publisher><dc:title>pocket watch</dc:title><dc:date>2007-07-20T14:21:29</dc:date><dc:description>a old  drawing of a pocket watch from the Library of Congress</dc:description><dc:source>http://openclipart.org/detail/4517/pocket-watch-by-johnny_automatic</dc:source><dc:creator><cc:Agent><dc:title>johnny_automatic</dc:title></cc:Agent></dc:creator><dc:subject><rdf:Bag><rdf:li>clip art</rdf:li><rdf:li>clipart</rdf:li><rdf:li>externalsource</rdf:li><rdf:li>image</rdf:li><rdf:li>loc</rdf:li><rdf:li>media</rdf:li><rdf:li>png</rdf:li><rdf:li>pocket</rdf:li><rdf:li>public domain</rdf:li><rdf:li>svg</rdf:li><rdf:li>time</rdf:li><rdf:li>timepiece</rdf:li><rdf:li>watch</rdf:li></rdf:Bag></dc:subject></cc:Work><cc:License rdf:about="http://creativecommons.org/licenses/publicdomain/"><cc:permits rdf:resource="http://creativecommons.org/ns#Reproduction"/><cc:permits rdf:resource="http://creativecommons.org/ns#Distribution"/><cc:permits rdf:resource="http://creativecommons.org/ns#DerivativeWorks"/></cc:License></rdf:RDF></metadata></svg>
