<?xml version="1.0" standalone="no"?>
<!DOCTYPE svg PUBLIC "-//W3C//DTD SVG 20010904//EN"
 "http://www.w3.org/TR/2001/REC-SVG-20010904/DTD/svg10.dtd">
<svg version="1.0" xmlns="http://www.w3.org/2000/svg"
 width="500.000000pt" height="500.000000pt" viewBox="0 0 500.000000 500.000000"
 preserveAspectRatio="xMidYMid meet">
<metadata>
Created by potrace 1.11, written by Peter Selinger 2001-2013
</metadata>
<g transform="translate(0.000000,500.000000) scale(0.100000,-0.100000)"
fill="#000000" stroke="none">
<path d="M2425 4942 c-202 -19 -398 -129 -510 -287 -56 -79 -80 -128 -100
-206 -19 -71 -29 -199 -16 -199 4 0 8 14 9 30 2 78 51 243 95 318 84 147 204
245 362 295 74 24 101 28 203 32 78 3 105 -1 164 -21 40 -13 81 -24 92 -24 19
1 19 2 -4 15 -58 31 -209 56 -295 47z"/>
<path d="M2410 4892 c0 -5 21 -10 46 -10 28 -2 43 2 39 8 -7 12 -85 14 -85 2z"/>
<path d="M2594 4879 c-3 -5 6 -9 20 -9 31 0 34 6 6 13 -11 3 -23 1 -26 -4z"/>
<path d="M2670 4860 c0 -5 5 -10 11 -10 13 0 108 -72 109 -82 0 -4 -29 6 -64
22 -35 16 -78 32 -95 35 -16 3 -41 9 -54 14 -43 16 -194 10 -270 -11 -86 -23
-153 -60 -160 -88 -3 -11 -13 -20 -22 -20 -14 0 -15 -3 -6 -14 9 -11 8 -15 -4
-20 -9 -3 -13 -2 -10 4 3 6 0 10 -7 10 -26 0 -168 -172 -168 -203 0 -10 -11
-50 -26 -90 -23 -66 -35 -180 -20 -194 3 -3 -1 -18 -9 -33 -11 -21 -12 -29 -3
-32 7 -3 13 -24 13 -49 1 -25 13 -70 28 -103 15 -32 27 -65 27 -72 0 -27 -18
-13 -33 25 -9 22 -21 42 -27 46 -16 10 -46 83 -55 132 -3 23 -13 47 -20 53
-24 20 35 -166 77 -243 29 -53 32 -57 98 -125 93 -96 164 -139 242 -146 24 -2
35 -2 25 1 -13 3 -16 10 -11 26 4 12 8 71 9 132 2 89 6 116 21 142 26 41 39
32 63 -42 15 -44 19 -79 16 -143 -2 -46 0 -94 4 -105 l8 -21 11 21 c7 13 11
63 11 120 -1 71 3 109 15 137 27 64 32 68 74 50 20 -8 39 -19 42 -24 7 -11 12
-74 14 -160 1 -34 6 -58 14 -63 11 -7 10 -13 -4 -28 -28 -31 -4 -44 92 -48 74
-3 87 -1 99 15 19 26 28 12 14 -20 -10 -20 -19 -26 -46 -26 -18 -1 -80 -1
-137 -1 -57 0 -122 -5 -144 -10 -29 -6 -49 -5 -73 5 -28 12 -34 11 -51 -6 -19
-19 -20 -19 -63 6 -24 14 -47 26 -51 26 -14 0 7 -63 31 -92 29 -34 32 -64 9
-98 -25 -37 -45 -50 -76 -50 -15 0 -28 -5 -28 -11 0 -6 7 -9 15 -5 22 8 45 -4
38 -21 -4 -10 -13 -13 -30 -8 -14 3 -22 2 -19 -3 3 -5 -13 -13 -37 -16 -23 -4
-71 -16 -106 -26 -35 -11 -74 -20 -87 -20 -13 0 -24 -6 -24 -13 0 -11 -51 -31
-108 -43 -7 -1 -29 -14 -48 -29 -19 -15 -41 -24 -49 -21 -8 3 -19 -3 -25 -14
-6 -11 -15 -20 -21 -20 -5 0 -50 -27 -99 -60 -60 -40 -90 -67 -90 -79 0 -10
-6 -21 -14 -24 -54 -21 -138 -86 -153 -119 -10 -21 -23 -38 -29 -38 -7 0 -26
-16 -43 -35 -28 -33 -35 -47 -32 -67 0 -5 -3 -8 -9 -8 -5 0 -25 -16 -45 -37
-25 -25 -35 -45 -35 -67 0 -21 -3 -27 -9 -17 -7 11 -10 11 -17 0 -25 -40 -64
-134 -64 -154 0 -14 -7 -25 -20 -28 -13 -3 -18 -10 -14 -21 3 -9 1 -16 -5 -16
-15 0 -28 -35 -52 -135 -11 -44 -26 -98 -35 -119 -17 -44 -20 -61 -29 -186 -7
-95 -7 -391 0 -430 2 -14 13 -50 24 -80 11 -30 23 -79 27 -109 4 -30 15 -68
25 -85 10 -17 23 -53 30 -81 6 -27 17 -57 24 -65 16 -19 25 -58 18 -76 -6 -17
-23 -18 -23 -1 0 6 -14 39 -30 72 -17 33 -30 69 -30 82 0 12 -4 24 -9 27 -4 3
-11 26 -14 52 -2 26 -10 49 -16 53 -10 6 -51 196 -67 304 -3 26 -10 47 -15 47
-5 0 -7 -6 -4 -12 2 -7 6 -42 10 -77 8 -82 30 -201 52 -271 9 -30 17 -57 18
-60 5 -25 66 -168 93 -220 42 -79 57 -102 64 -95 3 3 8 -7 11 -24 10 -50 119
-207 165 -237 23 -15 23 -15 12 5 -6 12 -44 65 -84 119 -40 53 -78 112 -86
130 -7 18 -15 30 -18 27 -9 -9 -32 48 -27 67 10 30 21 21 49 -39 14 -32 34
-71 43 -88 31 -52 140 -191 203 -256 38 -40 55 -66 48 -70 -14 -9 -38 -1 -38
12 0 13 -61 72 -67 65 -7 -7 85 -113 132 -151 20 -16 46 -38 58 -49 24 -20
259 -176 293 -194 18 -9 26 -8 44 8 23 20 23 20 77 -10 59 -33 83 -37 83 -17
0 7 13 23 30 35 16 13 30 18 30 13 0 -6 -9 -15 -21 -21 -11 -7 -18 -14 -15
-17 3 -3 17 2 30 11 28 18 36 20 36 8 0 -5 -16 -16 -35 -25 -19 -9 -35 -21
-35 -27 0 -5 27 -17 60 -27 50 -13 58 -19 48 -31 -10 -12 -14 -11 -24 3 -7 9
-17 14 -23 10 -6 -3 -11 -2 -11 3 0 9 -8 11 -57 13 -16 1 -41 11 -58 23 -47
35 -94 51 -107 38 -7 -7 -10 -13 -7 -15 41 -28 244 -100 313 -111 21 -4 41 -8
45 -10 3 -2 31 -7 61 -11 30 -4 57 -8 60 -10 11 -7 188 -18 283 -17 96 0 217
9 247 17 8 3 31 7 50 9 48 6 124 24 152 35 13 5 56 22 96 36 71 26 86 40 57
51 -38 15 16 25 70 14 22 -5 35 1 35 14 0 10 8 13 26 10 21 -4 25 -2 21 11 -5
12 1 15 27 15 18 0 42 8 54 17 52 44 63 53 67 53 8 0 170 104 177 114 3 5 4
15 1 23 -4 9 0 11 11 7 17 -7 48 23 168 161 77 89 70 81 118 150 19 28 38 52
41 55 15 13 85 139 129 232 70 147 113 281 134 413 2 17 7 49 11 73 7 45 8
278 1 322 -2 14 -7 50 -11 80 -32 240 -165 573 -313 779 -70 99 -193 231 -276
297 -75 60 -200 143 -206 137 -3 -3 0 -8 7 -10 53 -19 323 -267 307 -282 -3
-3 -42 33 -87 80 -51 52 -98 92 -124 104 -24 10 -43 24 -43 31 0 8 -24 26 -52
40 -29 15 -54 30 -56 35 -2 5 -11 9 -21 9 -27 0 -71 24 -71 38 0 7 -4 11 -9 7
-5 -3 -25 1 -43 9 -48 21 -71 29 -88 30 -8 1 -14 7 -12 14 1 8 -5 11 -21 6
-16 -3 -30 1 -42 12 -10 10 -34 19 -54 21 -56 4 -131 24 -183 48 -44 20 -57
40 -20 29 13 -4 12 -2 -2 8 -65 44 -69 66 -26 161 16 35 30 81 32 102 2 33 8
41 68 79 122 81 213 195 265 336 24 66 28 90 28 195 1 142 -14 206 -76 310
-22 39 -46 75 -51 82 -69 75 -137 136 -177 157 -46 24 -62 23 -38 -1 7 -7 6
-12 -5 -16 -9 -4 -16 -2 -16 3 0 5 -10 16 -22 24 -31 19 -78 29 -78 16z
m-1312 -4340 c16 -25 16 -25 -4 -7 -11 9 -26 17 -32 17 -7 0 -12 5 -12 11 0
19 32 5 48 -21z m1967 -199 c-7 -12 -48 -35 -82 -45 -37 -12 -26 9 12 23 19 7
35 17 35 22 0 6 4 8 9 4 5 -3 13 0 16 6 4 5 9 8 12 5 3 -2 2 -10 -2 -15z
m-141 -70 c7 -11 -22 -23 -35 -15 -5 3 -7 10 -4 15 8 12 32 12 39 0z"/>
<path d="M1876 4451 c-4 -7 -5 -15 -2 -18 9 -9 19 4 14 18 -4 11 -6 11 -12 0z"/>
<path d="M2437 3870 c-3 -11 -1 -23 4 -26 5 -3 9 6 9 20 0 31 -6 34 -13 6z"/>
<path d="M2463 3662 c-13 -2 -23 -7 -23 -11 0 -4 10 -7 23 -5 12 1 35 3 51 3
16 1 27 3 25 5 -7 8 -52 12 -76 8z"/>
<path d="M2005 3379 c-88 -25 -175 -60 -175 -71 0 -5 9 -4 21 2 11 7 73 29
137 50 124 42 133 52 17 19z"/>
<path d="M2850 3390 c0 -4 26 -13 58 -20 99 -21 214 -61 310 -105 50 -24 92
-41 92 -39 0 9 -221 111 -287 133 -69 23 -173 42 -173 31z"/>
<path d="M1625 3217 c-302 -171 -525 -394 -667 -667 -41 -77 -94 -202 -104
-240 -2 -8 -15 -53 -29 -100 -23 -78 -46 -187 -61 -285 -3 -22 -7 -52 -10 -67
-2 -15 0 -30 6 -33 5 -3 10 -3 11 2 0 4 2 15 4 23 1 8 6 44 9 80 4 36 9 78 11
93 12 97 90 348 142 454 132 273 335 498 611 678 56 36 102 68 102 71 0 5 0 5
-25 -9z"/>
<path d="M3334 3206 c11 -9 24 -16 30 -16 12 0 7 5 -24 19 -24 11 -24 11 -6
-3z"/>
<path d="M759 1808 c-6 -11 -6 -138 0 -138 4 0 7 31 7 70 -1 62 -2 77 -7 68z"/>
<path d="M3120 211 c0 -6 5 -13 10 -16 6 -3 10 1 10 9 0 9 -4 16 -10 16 -5 0
-10 -4 -10 -9z"/>
</g>
</svg>
